<svg width="766" height="128" viewBox="0 0 766 128" fill="none" xmlns="http://www.w3.org/2000/svg">
<g clip-path="url(#clip0_75_254)">
<path d="M627.6 101.4C630 106.8 633 111 636.6 115.2C640.8 118.8 645 121.8 650.4 124.2C655.8 126.6 661.8 127.2 668.4 127.2C675.6 127.2 681.6 126 687.6 123.6C693.6 121.2 698.4 117.6 702.6 112.8L691.2 98.4C688.2 101.4 684.6 104.4 681 106.2C676.8 108 672.6 109.2 668.4 109.2C664.8 109.2 661.8 108.6 658.8 107.4C655.8 106.2 653.4 104.4 651 102.6C648.6 100.2 646.8 97.8 645.6 94.8C644.4 91.8 643.8 88.2 643.8 84.6C643.8 81 644.4 77.4 645.6 74.4C646.8 71.4 648.6 68.4 651 66.6C653.4 64.2 655.8 62.4 658.8 61.2C661.8 60 664.8 59.4 668.4 59.4C673.2 59.4 677.4 60.6 681 62.4C684.6 64.2 688.2 67.2 691.2 70.2L702.6 55.8C698.4 51 693.6 47.4 687.6 45C681.6 42.6 675.6 41.4 668.4 41.4C661.8 41.4 656.4 42.6 650.4 44.4C645 46.8 640.2 49.8 636.6 53.4C632.4 57 629.4 61.8 627.6 67.2C625.2 72.6 624 78 624 84.6C624 90.6 625.2 96.6 627.6 101.4ZM449.4 43.2H430.2V124.8H449.4V43.2ZM499.8 43.8C495.6 45.6 492.6 48.6 490.2 52.8V43.2H471V124.8H490.2V79.8C490.2 76.2 490.8 73.2 491.4 70.8C492 68.4 493.8 66 495 64.2C496.8 62.4 498.6 61.2 501 60C503.4 58.8 505.8 58.8 508.8 58.8C511.2 58.8 513.6 58.8 516 59.4C518.4 60 520.8 60.6 522.6 61.8L526.8 43.2C524.4 42.6 522.6 42 520.2 42C517.8 41.4 515.4 41.4 513 41.4C508.2 41.4 503.4 42 499.8 43.8ZM551.4 76.8C552 74.4 552.6 72 553.2 69.6C554.4 67.2 555.6 65.4 557.4 63.6C559.2 61.8 561 60.6 563.4 60C565.8 58.8 568.2 58.8 571.8 58.8C574.8 58.8 577.2 59.4 579.6 60C582 61.2 583.8 62.4 585.6 63.6C587.4 65.4 588.6 67.2 589.8 69.6C591 72 591.6 74.4 591.6 76.8H551.4ZM555.6 44.4C550.8 46.8 546.6 49.2 543 53.4C539.4 57.6 536.4 61.8 534.6 67.2C532.8 72.6 531.6 78.6 531.6 84.6C531.6 91.2 532.8 97.2 534.6 102.6C536.4 108 539.4 112.2 543 116.4C546.6 120 551.4 123 556.2 125.4C561.6 127.2 567 128.4 573 128.4C579.6 128.4 585 127.8 591 126C596.4 124.2 601.8 121.2 607.2 117L598.2 102.6C594.6 105.6 591 107.4 586.8 109.2C582.6 111 578.4 111.6 574.8 111.6C571.8 111.6 569.4 111 566.4 110.4C564 109.8 561.6 108.6 559.2 106.8C557.4 105 555.6 103.2 553.8 100.8C552.6 98.4 551.4 95.4 551.4 92.4H610.2C610.2 91.2 610.8 90 610.8 88.8C610.8 87.6 610.8 86.4 610.8 85.2C610.8 78.6 609.6 73.2 607.8 67.8C606 62.4 603 58.2 600 54C596.4 50.4 592.8 47.4 588 45C583.2 42.6 577.8 42 572.4 42C566.4 41.4 561 42 555.6 44.4ZM357 107.4C354 106.2 351.6 104.4 349.8 102C348 99.6 346.2 97.2 345 94.2C343.8 91.2 343.2 88.2 343.2 84.6C343.2 81 343.8 78 345 75C346.2 72 347.4 69.6 349.8 67.2C351.6 64.8 354 63 357 61.8C360 60.6 363 60 367.2 60C370.8 60 373.8 60.6 376.8 61.8C379.8 63 382.2 64.8 384 67.2C385.8 69.6 387.6 72 388.8 75C390 78 390.6 81.6 390.6 85.2C390.6 88.8 390 91.8 388.8 94.8C387.6 97.8 386.4 100.8 384 102.6C382.2 105 379.8 106.8 376.8 108C373.8 109.2 370.8 109.8 367.2 109.8C363 109.2 360 108.6 357 107.4ZM408.6 0H389.4V52.8C387 49.2 383.4 46.2 379.2 44.4C375 42.6 370.2 41.4 364.2 41.4C358.2 41.4 352.8 42.6 348 44.4C343.2 46.8 339 49.8 335.4 53.4C331.8 57 328.8 61.8 327 67.2C324.6 72 324 78 324 84.6C324 91.2 325.2 96.6 327 102C328.8 107.4 331.8 111.6 335.4 115.8C339 119.4 343.2 122.4 348 124.8C352.8 127.2 358.2 127.8 364.2 127.8C370.2 127.8 375 126.6 379.2 124.8C383.4 123 387 120 389.4 116.4V125.4H408.6V0ZM121.8 107.4C118.8 106.2 116.4 104.4 114 102C111.6 99.6 110.4 97.2 109.2 94.2C108 91.2 107.4 87.6 107.4 84C107.4 80.4 108 76.8 109.2 73.8C110.4 70.8 112.2 67.8 114 66C115.8 64.2 118.8 61.8 121.8 60.6C124.8 59.4 127.8 58.8 131.4 58.8C135 58.8 138 59.4 141 60.6C144 61.8 146.4 63.6 148.8 66C151.2 68.4 152.4 70.8 153.6 73.8C154.8 76.8 155.4 80.4 155.4 84C155.4 87.6 154.8 91.2 153.6 94.2C152.4 97.2 150.6 100.2 148.8 102C146.4 104.4 144 106.2 141 107.4C138 108.6 135 109.2 131.4 109.2C127.8 109.2 124.8 108.6 121.8 107.4ZM114 44.4C108.6 46.8 103.8 49.8 100.2 53.4C96 57 93 61.8 91.2 67.2C88.8 72.6 87.6 78 87.6 84C87.6 90 88.8 96 91.2 101.4C93.6 106.8 96.6 111 100.2 115.2C104.4 118.8 108.6 122.4 114 124.2C119.4 126.6 125.4 127.8 131.4 127.8C138 127.8 143.4 126.6 148.8 124.2C154.2 121.8 159 118.8 162.6 115.2C166.8 111.6 169.8 106.8 171.6 101.4C174 96 175.2 90.6 175.2 84C175.2 77.4 174 72 171.6 67.2C169.2 61.8 166.2 57.6 162.6 53.4C158.4 49.8 154.2 46.2 148.8 44.4C144 42 138 41.4 131.4 41.4C125.4 41.4 119.4 42 114 44.4ZM3.6 101.4C6 106.8 9 111 12.6 115.2C16.8 118.8 21 121.8 26.4 124.2C31.8 126.6 37.8 127.2 44.4 127.2C51.6 127.2 57.6 126 63.6 123.6C69.6 121.2 74.4 117.6 78.6 112.8L67.2 98.4C64.2 101.4 61.2 104.4 57 106.2C52.8 108 48.6 109.2 44.4 109.2C40.8 109.2 37.8 108.6 34.8 107.4C31.8 106.2 29.4 104.4 27 102.6C24.6 100.2 22.8 97.8 21.6 94.8C20.4 91.8 19.8 88.2 19.8 84.6C19.8 81 20.4 77.4 21.6 74.4C22.8 71.4 24.6 68.4 27 66.6C29.4 64.2 31.8 62.4 34.8 61.2C37.8 60 40.8 59.4 44.4 59.4C49.2 59.4 53.4 60.6 57 62.4C60.6 64.2 64.2 67.2 67.2 70.2L78.6 55.8C74.4 51 69.6 47.4 63.6 45C57.6 42.6 51.6 41.4 44.4 41.4C37.8 41.4 32.4 42.6 26.4 44.4C21 46.8 16.8 49.8 12.6 53.4C8.4 57 5.4 61.8 3.6 67.2C1.2 72.6 0 78 0 84.6C0 90.6 1.2 96.6 3.6 101.4ZM760.2 106.8C758.4 107.4 756.6 108 754.8 108.6C753 109.2 751.2 109.2 749.4 109.2C747.6 109.2 745.8 109.2 744.6 108.6C743.4 108 741.6 107.4 741 106.2C739.8 105 739.2 103.8 738.6 101.4C738 99.6 738 97.2 738 94.2V60.6H762.6V43.2H738V18.6H718.8V95.4C718.8 106.2 721.2 114.6 726.6 119.4C732 124.8 739.2 127.2 748.8 127.2C751.8 127.2 755.4 126.6 757.8 126C760.8 125.4 763.2 124.2 765.6 123L760.2 106.8ZM239.4 125.4H258.6V80.4C258.6 73.8 259.8 68.4 262.2 64.8C264.6 61.2 268.2 59.4 273.6 59.4C279 59.4 282 61.2 284.4 64.8C286.8 68.4 288 73.2 288 79.8V125.4H307.2V74.4C307.2 69.6 306.6 65.4 304.8 61.2C303 57 301.2 54 298.2 51C295.8 48 292.2 45.6 288.6 44.4C285 42.6 280.8 42 276.6 42C271.2 42 266.4 43.2 262.2 45.6C258 48 254.4 51.6 251.4 56.4C248.4 51.6 244.8 48 240.6 45.6C236.4 43.2 233.4 41.4 228 41.4C225.6 41.4 223.8 41.4 222 42C220.2 42.6 218.4 43.2 216.6 44.4C214.8 45 213.6 46.2 212.4 47.4C211.2 48.6 210.6 49.2 210 50.4V43.2H190.8V124.8H210V79.8C210 73.2 211.2 67.8 213.6 64.2C216 60.6 219.6 58.8 224.4 58.8C229.2 58.8 232.8 60.6 235.8 64.2C238.2 67.8 239.4 72.6 239.4 79.2V125.4Z" fill="#272929"/>
</g>
<defs>
<clipPath id="clip0_75_254">
<rect width="765.6" height="127.8" fill="white"/>
</clipPath>
</defs>
</svg>
