<svg width="1205" height="220" viewBox="0 0 1205 220" fill="none" xmlns="http://www.w3.org/2000/svg">
<path d="M1106.26 35.4222C1103.14 35.4222 1093.86 35.4224 1083.09 48.5109C1083.22 48.6762 1083.36 48.8415 1083.51 49.0122C1086.27 45.7748 1089.75 42.4627 1093.48 40.0519C1096.92 37.8332 1100.92 36.3503 1104.22 35.9877C1106.63 35.721 1114.61 35.8223 1123.68 35.8223C1123.73 35.8223 1123.76 35.8435 1123.78 35.8701L1123.55 35.4756C1123.53 35.4383 1123.5 35.4222 1123.46 35.4222H1106.26Z" fill="url(#paint0_radial_73_270)"/>
<path d="M1043.04 35.4225C1043.01 35.4225 1042.97 35.4334 1042.95 35.4707L1009.19 93.9474L998.603 112.284L997.377 114.412L997.216 114.684C997.206 114.705 997.206 114.743 997.227 114.785L1029.39 170.489V170.259C1028.69 168.979 1028.19 167.992 1027.92 167.374C1026.58 164.328 1025.81 160.115 1026.01 156.019C1026.56 145.234 1032.29 134.594 1035.18 129.602C1041.94 117.89 1055.01 95.2381 1055.01 95.2381C1055.01 95.2381 1068.09 72.5865 1074.85 60.8687C1077.73 55.8819 1084.08 45.5935 1093.16 39.7319C1096.6 37.5078 1100.64 36.0681 1103.94 35.7054C1106.35 35.4334 1114.37 35.4225 1123.46 35.4225H1043.04Z" fill="url(#paint1_radial_73_270)"/>
<path d="M997.494 115.228C998 116.113 998.502 116.988 998.998 117.841L997.494 115.228ZM1159.27 131.548C1157.3 134.226 1154.04 137.004 1150.39 138.871C1140.77 143.794 1128.7 144.151 1122.94 144.151H1083.25H1043.57C1037.81 144.151 1025.72 143.794 1016.12 138.871C1012.46 137.004 1009.2 134.226 1007.23 131.548C1005.98 129.847 1002.78 124.396 998.998 117.841L1007.07 131.825L1037.44 184.43C1037.45 184.457 1037.49 184.478 1037.52 184.478H1128.99C1129.01 184.478 1129.05 184.451 1129.07 184.425L1168.92 115.404C1164.52 123.015 1160.67 129.644 1159.27 131.548Z" fill="url(#paint2_radial_73_270)"/>
<path d="M1103.93 35.705C1100.64 36.0676 1096.59 37.5074 1093.15 39.7315C1089.36 42.1849 1086.04 45.4117 1083.25 48.7025C1087.13 53.2733 1089.98 57.9615 1091.65 60.8683C1098.41 72.586 1111.5 95.2376 1111.5 95.2376C1111.5 95.2376 1124.57 117.889 1131.34 129.601C1134.21 134.594 1139.95 145.234 1140.48 156.018C1140.69 160.115 1139.91 164.328 1138.58 167.373C1137.65 169.501 1133.94 175.971 1129.64 183.427L1169.28 114.769C1169.28 114.769 1169.29 114.758 1169.29 114.747V114.705C1169.29 114.694 1169.28 114.678 1169.28 114.678L1123.54 35.4754C1123.53 35.4381 1123.5 35.4221 1123.46 35.4221C1114.37 35.4221 1106.35 35.433 1103.93 35.705Z" fill="url(#paint3_radial_73_270)"/>
<path d="M76.1007 76.0161C53.4759 76.0161 35.4326 94.6408 35.4326 118.018C35.4327 142.45 53.1666 159.352 75.034 159.352C87.5518 159.352 97.2481 154.867 104.635 146.419L93.7013 135.218C89.1785 140.045 83.4876 142.685 76.1007 142.685C63.2843 142.685 54.6333 131.949 54.6333 117.618C54.6332 103.745 63.4709 92.6834 75.834 92.6834C82.325 92.6834 87.8398 95.1101 92.3679 99.4836L103.702 87.7499C97.0614 80.5123 87.2638 76.0161 76.1007 76.0161ZM152.77 76.0161C128.791 76.0161 110.769 94.7901 110.769 118.018C110.769 141.549 127.804 159.352 152.237 159.352C176.216 159.352 194.238 140.584 194.238 117.351C194.238 93.8247 177.198 76.0161 152.77 76.0161ZM213.706 77.3495L205.839 157.886H222.506L226.239 114.417C226.991 105.969 227.039 97.2169 227.039 97.2169H227.439C227.439 97.2169 229.295 106.022 231.706 114.017L245.307 157.886H261.174L274.774 113.617C277.185 105.926 279.041 97.2169 279.041 97.2169H279.308C279.308 97.2169 279.489 105.932 280.241 114.684L283.841 157.886H301.575L293.708 77.3495H270.374L258.107 117.218C256.15 123.714 254.107 132.018 254.107 132.018C254.107 132.018 251.958 123.724 249.84 117.084L237.44 77.3495H213.706ZM325.976 77.3495L318.242 157.886H334.91L338.51 114.417C339.262 105.969 339.443 97.2169 339.443 97.2169H339.71C339.71 97.2169 341.699 106.022 344.11 114.017L357.711 157.886H373.578L387.045 113.617C389.461 105.926 391.312 97.2169 391.312 97.2169H391.578C391.578 97.2169 391.76 105.932 392.512 114.684L396.112 157.886H413.979L406.112 77.3495H382.778L370.511 117.218C368.548 123.714 366.511 132.018 366.511 132.018C366.511 132.018 364.356 123.724 362.244 117.084L349.844 77.3495H325.976ZM433.18 77.3495V157.886H485.582V142.418H450.78V124.818H480.248V109.751H450.78V92.6834H485.048V77.3495H433.18ZM506.249 77.3495V157.886H523.85V128.551H529.317L546.517 157.886H567.451L547.584 125.485C557.99 121.564 563.851 113.489 563.851 103.084C563.851 86.7952 554.667 77.3495 530.383 77.3495H506.249ZM578.518 77.3495V92.6834H611.053L577.718 144.552V157.886H633.854V142.418H599.719L633.053 90.55V77.3495H578.518ZM651.987 77.3495V157.886H682.789C697.12 157.886 713.056 151.421 713.056 134.685C713.056 124.279 706.411 117.234 695.856 115.884V115.751C704.149 113.18 709.323 106.913 709.323 98.0169C709.323 80.5176 693.893 77.3495 679.855 77.3495H651.987ZM747.591 77.3495L718.923 157.886H736.524L742.124 141.485H773.458L779.059 157.886H797.993L769.325 77.3495H747.591ZM808.926 77.3495V157.886H825.194V119.618C825.194 112.375 824.66 104.95 824.66 104.95C824.66 104.95 828.442 111.42 832.66 117.751L859.995 157.886H875.595V77.3495H859.195V113.884C859.195 121.127 859.728 128.418 859.728 128.418C859.728 128.418 855.957 121.954 851.728 115.617L825.594 77.3495H808.926ZM894.929 77.3495V157.886H912.397V120.151L938.131 157.886H959.732L930.131 114.684L956.931 77.3495H936.664L912.397 113.484V77.3495H894.929ZM152.503 92.4167C166.376 92.4167 175.304 103.425 175.304 117.751C175.304 131.325 166.675 142.952 152.503 142.952C138.626 142.952 129.703 131.949 129.703 117.618C129.703 104.044 138.327 92.4167 152.503 92.4167ZM523.85 92.4167H531.05C540.4 92.4167 545.85 95.2435 545.85 103.084C545.851 110.625 540.853 113.884 531.05 113.884H523.85V92.4167ZM669.455 92.4167H679.588C685.167 92.4167 690.789 94.1767 690.789 100.817C690.789 107.297 685.978 109.884 680.388 109.884H669.455V92.4167ZM757.858 93.6167C757.858 93.6167 759.357 99.0676 761.325 104.95L768.392 126.285H747.324L754.391 105.084C756.354 99.0516 757.858 93.6167 757.858 93.6167ZM669.455 124.684H682.389C690.224 124.684 695.322 127.149 695.322 133.485C695.322 139.672 691.285 142.818 682.389 142.818H669.455V124.684Z" fill="black"/>
<defs>
<radialGradient id="paint0_radial_73_270" cx="0" cy="0" r="1" gradientUnits="userSpaceOnUse" gradientTransform="translate(1138.58 167.371) scale(132.813 132.816)">
<stop stop-color="#FEDF33"/>
<stop offset="0.440002" stop-color="#FBB809"/>
<stop offset="0.899994" stop-color="#EE960D"/>
<stop offset="1" stop-color="#E17A10"/>
</radialGradient>
<radialGradient id="paint1_radial_73_270" cx="0" cy="0" r="1" gradientUnits="userSpaceOnUse" gradientTransform="translate(1103.9 35.4194) scale(132.911 132.912)">
<stop stop-color="#FEDF33"/>
<stop offset="0.440002" stop-color="#FBB809"/>
<stop offset="0.899994" stop-color="#EE960D"/>
<stop offset="1" stop-color="#E17A10"/>
</radialGradient>
<radialGradient id="paint2_radial_73_270" cx="0" cy="0" r="1" gradientUnits="userSpaceOnUse" gradientTransform="translate(1007.07 131.825) scale(132.859 132.859)">
<stop stop-color="#FEDF33"/>
<stop offset="0.440002" stop-color="#FBB809"/>
<stop offset="0.899994" stop-color="#EE960D"/>
<stop offset="1" stop-color="#E17A10"/>
</radialGradient>
<radialGradient id="paint3_radial_73_270" cx="0" cy="0" r="1" gradientUnits="userSpaceOnUse" gradientTransform="translate(1138.5 167.799) scale(133.231 133.231)">
<stop stop-color="#FEDF33"/>
<stop offset="0.440002" stop-color="#FBB809"/>
<stop offset="0.899994" stop-color="#EE960D"/>
<stop offset="1" stop-color="#D87301"/>
</radialGradient>
</defs>
</svg>
