<svg width="48" height="48" viewBox="0 0 48 48" fill="none" xmlns="http://www.w3.org/2000/svg">
<path d="M44.4115 12.9687C44.8646 12.2292 45.375 11.375 45.8073 10.6927C46.1927 10.0417 45.9844 9.19792 45.3385 8.80208L36.2812 3.23958C35.6406 2.80729 34.776 2.97917 34.349 3.61458C34.3281 3.64063 34.3125 3.66667 34.2969 3.69792C33.9323 4.30208 33.4687 5.08854 32.9583 5.93229C29.3698 11.8437 25.7604 11.1198 19.2552 8.01563L10.3021 3.77604C9.60937 3.44271 8.77603 3.73958 8.44791 4.43229C8.4427 4.44271 8.43749 4.45833 8.42708 4.46875L4.11458 14.2083C3.81249 14.901 4.11978 15.7135 4.81249 16.0313C6.70833 16.9167 10.4792 18.6927 13.8698 20.3281C26.1042 26.2396 36.4792 25.8437 44.4115 12.9687Z" fill="#2684FF"/>
<path d="M3.58855 36.0312C3.13542 36.7708 2.625 37.625 2.19271 38.3073C1.8073 38.9583 2.01563 39.8021 2.66146 40.1979L11.7188 45.7604C12.3594 46.1927 13.224 46.0208 13.651 45.3854C13.6719 45.3594 13.6875 45.3333 13.7031 45.3021C14.0677 44.6979 14.5313 43.9115 15.0417 43.0677C18.6302 37.1563 22.2396 37.8802 28.7448 40.9844L37.6979 45.224C38.3906 45.5573 39.224 45.2604 39.5521 44.5677C39.5625 44.5573 39.5677 44.5417 39.5729 44.5312L43.8854 34.7917C44.1875 34.099 43.8802 33.2865 43.1875 32.9687C41.2917 32.0833 37.5208 30.3073 34.1302 28.6719C21.8958 22.7604 11.5208 23.1562 3.58855 36.0312Z" fill="#2684FF"/>
</svg>
