<svg width="600" height="180" viewBox="0 0 600 180" fill="none" xmlns="http://www.w3.org/2000/svg">
<g clip-path="url(#clip0_85_2054)">
<path d="M276.147 128.044H252.696V45.1001H315.319V65.7706H276.147V75.8085H310.492V96.3214H276.147V128.044Z" fill="#000002"/>
<path d="M347.794 128.044H324.343V44.9954H347.794V128.044Z" fill="#000002"/>
<path d="M434.689 128.044H368.586V44.9954H432.801V65.7707H391.792V74.4619H429.426V94.9749H391.792V107.059H434.689V128.044Z" fill="#000002"/>
<path d="M480.909 129.985C469.63 129.985 460.239 126.103 452.999 118.426C445.532 110.819 441.737 100.309 441.737 87.2631C441.737 74.1125 445.549 63.3577 453.086 55.2958C460.676 47.1815 470.801 43.0545 483.165 43.0545C493.85 43.0545 502.611 45.8001 509.239 51.2037C515.954 56.6774 519.854 63.6199 520.851 71.8566L521.34 75.9836H498.344L497.68 73.1507C496.7 69.0935 494.532 66.4529 490.807 64.8616C488.639 63.9352 486.138 63.4625 483.375 63.4625C478.216 63.4625 474.089 65.2987 470.784 69.0935C467.391 72.9759 465.677 79.1315 465.677 87.3856C465.677 95.5349 467.444 101.253 470.941 104.366C474.631 107.636 478.688 109.228 483.322 109.228C487.869 109.228 491.454 108.021 494.252 105.573C496.018 104.034 497.33 102.198 498.239 100.064H481.486V80.0582H521.13V128.044H503.625L502.681 122.606C501.247 123.864 499.883 124.862 498.554 125.648C493.727 128.516 487.799 129.985 480.909 129.985Z" fill="#000002"/>
<path d="M600 128.044H533.897V44.9954H598.111V65.7707H557.103V74.4619H594.736V94.9749H557.103V107.059H600V128.044Z" fill="#000002"/>
<path d="M55.978 171.798H150.918L198.379 89.589L150.918 7.37989H55.978L8.51652 89.589L55.978 171.798ZM155.168 179.178H51.7284L0 89.589L51.7284 0H155.168L206.896 89.589L155.168 179.178Z" fill="#000002"/>
<path d="M145.183 15.7739H97.3367L55.3838 86.5114H103.23L145.183 15.7739Z" fill="#DC0A2E"/>
<path d="M55.3838 92.6489H103.23L145.183 163.404H97.3367L55.3838 92.6489Z" fill="#DC0A2E"/>
</g>
<defs>
<clipPath id="clip0_85_2054">
<rect width="600" height="179.178" fill="white"/>
</clipPath>
</defs>
</svg>
