<svg width="48" height="48" viewBox="0 0 48 48" fill="none" xmlns="http://www.w3.org/2000/svg">
<path d="M43.6094 20.0833H42V20H24V28H35.3021C33.6563 32.6563 29.224 36 24 36C17.375 36 12 30.625 12 24C12 17.375 17.375 12 24 12C27.0573 12 29.8438 13.1563 31.9635 15.0365L37.6198 9.38021C34.0469 6.05208 29.2656 4 24 4C12.9531 4 4 12.9531 4 24C4 35.0469 12.9531 44 24 44C35.0469 44 44 35.0469 44 24C44 22.6615 43.8646 21.349 43.6094 20.0833Z" fill="#FFC107"/>
<path d="M6.30729 14.6927L12.875 19.5104C14.6562 15.1094 18.9635 12 24 12C27.0573 12 29.8437 13.1563 31.9635 15.0365L37.6198 9.38021C34.0469 6.05208 29.2656 4 24 4C16.3177 4 9.65625 8.33854 6.30729 14.6927Z" fill="#FF3D00"/>
<path d="M24 44C29.1667 44 33.8594 42.0208 37.4115 38.8073L31.2188 33.5677C29.2135 35.0885 26.7135 36 24 36C18.7969 36 14.3802 32.6823 12.7188 28.0521L6.19271 33.0781C9.50521 39.5573 16.2292 44 24 44Z" fill="#4CAF50"/>
<path d="M43.6094 20.0833H42V20H24V28H35.3021C34.5104 30.2396 33.0729 32.1667 31.2135 33.5729C31.2187 33.5677 31.2188 33.5677 31.2188 33.5677L37.4115 38.8073C36.9687 39.2031 44 34 44 24C44 22.6615 43.8646 21.349 43.6094 20.0833Z" fill="#1976D2"/>
</svg>
