<svg width="48" height="48" viewBox="0 0 48 48" fill="none" xmlns="http://www.w3.org/2000/svg">
<path d="M24.0035 16.9016L17.0817 4.68603C17.3115 4.45204 17.5759 4.29856 17.8403 4.1954C15.7991 4.86719 14.8625 7.15934 14.8625 7.15934L2.21735 29.4694C2.03942 30.1689 1.99 30.8004 2.01224 31.3565H15.8139L24.0035 16.9016Z" fill="#34A853"/>
<path d="M24.0039 16.9016L32.1935 31.3565H45.9952C46.0174 30.8004 45.968 30.1689 45.7901 29.4694L33.1449 7.15934C33.1449 7.15934 32.2058 4.86719 30.1671 4.1954C30.429 4.29856 30.6959 4.45204 30.9258 4.68603L24.0039 16.9016Z" fill="#FBBC05"/>
<path d="M24.0031 16.9033L30.925 4.68775C30.6952 4.45375 30.4283 4.30027 30.1663 4.19711C29.8648 4.09898 29.5411 4.03357 29.1902 4.01595H28.8244H19.1818H18.8161C18.4676 4.03105 18.1414 4.09647 17.8399 4.19711C17.578 4.30027 17.3111 4.45375 17.0813 4.68775L24.0031 16.9033Z" fill="#188038"/>
<path d="M15.8156 31.3572L8.9728 43.4344C8.9728 43.4344 8.74545 43.3237 8.43655 43.0948C9.40773 43.842 10.3517 44.0006 10.3517 44.0006H37.2261C38.7088 44.0006 39.0177 43.4344 39.0177 43.4344C39.0227 43.4319 39.0251 43.4294 39.0301 43.4269L32.1923 31.3572H15.8156Z" fill="#4285F4"/>
<path d="M15.8169 31.3572H2.01523C2.08443 32.9977 2.79613 33.9564 2.79613 33.9564L3.31509 34.8571C3.35216 34.9099 3.3744 34.9401 3.3744 34.9401L4.50374 36.9228L7.03919 41.336C7.11333 41.5147 7.19982 41.6782 7.29126 41.8342C7.32586 41.887 7.35798 41.9449 7.39505 41.9952C7.40493 42.0103 7.41481 42.0254 7.4247 42.0405C7.73854 42.4834 8.08946 42.8255 8.44037 43.0948C8.74927 43.3262 8.97662 43.4344 8.97662 43.4344L15.8169 31.3572Z" fill="#1967D2"/>
<path d="M32.1935 31.3572H45.9951C45.926 32.9977 45.2143 33.9564 45.2143 33.9564L44.6953 34.8571C44.6582 34.9099 44.636 34.9401 44.636 34.9401L43.5066 36.9228L40.9712 41.336C40.897 41.5147 40.8106 41.6782 40.7191 41.8342C40.6845 41.887 40.6524 41.9449 40.6153 41.9952C40.6054 42.0103 40.5956 42.0254 40.5857 42.0405C40.2718 42.4834 39.9209 42.8255 39.57 43.0948C39.2611 43.3262 39.0338 43.4344 39.0338 43.4344L32.1935 31.3572Z" fill="#EA4335"/>
</svg>
