<svg viewBox="55.976 12.2452 190.702 21.4905" fill="none" xmlns="http://www.w3.org/2000/svg"><path d="M234.027 33.3122L230.772 24.3667L229.766 21.3231L229.872 25.6371V33.3122H225.294V12.6687H231.222L234.451 21.4554L236.065 26.2193L237.68 21.4554L240.882 12.6687H246.678V33.3122H242.205V25.6371L242.285 21.3231L241.305 24.3667L238.024 33.3122H234.027Z" fill="currentColor"/><path d="M210.691 29.2894C214.131 29.2894 216.804 27.0398 216.804 22.9905C216.804 18.9411 214.131 16.6915 210.691 16.6915C207.25 16.6915 204.577 18.9411 204.577 22.9905C204.577 27.0398 207.25 29.2894 210.691 29.2894ZM210.691 12.2452C216.831 12.2452 221.621 16.4269 221.621 22.9905C221.621 29.554 216.831 33.7357 210.691 33.7357C204.551 33.7357 199.76 29.554 199.76 22.9905C199.76 16.4269 204.551 12.2452 210.691 12.2452Z" fill="currentColor"/><path d="M185.538 29.2894C188.978 29.2894 191.651 27.0398 191.651 22.9905C191.651 18.9411 188.978 16.6915 185.538 16.6915C182.097 16.6915 179.424 18.9411 179.424 22.9905C179.424 27.0398 182.097 29.2894 185.538 29.2894ZM185.538 12.2452C191.678 12.2452 196.468 16.4269 196.468 22.9905C196.468 29.554 191.678 33.7357 185.538 33.7357C179.398 33.7357 174.607 29.554 174.607 22.9905C174.607 16.4269 179.398 12.2452 185.538 12.2452Z" fill="currentColor"/><path d="M163.774 12.6687V28.9453H173.275V33.3122H159.116V12.6687H163.774Z" fill="currentColor"/><path d="M142.832 25.8488V33.3122H138.174V12.6687H148.503C152.552 12.6687 154.775 15.7917 154.775 19.2587C154.775 21.9847 153.319 24.6049 150.673 25.5047L155.41 33.3122H149.958L145.697 25.8488H142.832ZM142.832 21.4819H147.788C149.402 21.4819 150.064 20.3439 150.064 19.2587C150.064 18.0942 149.402 17.0091 147.788 17.0091H142.832V21.4819Z" fill="currentColor"/><path d="M118.319 12.6687H133.537V17.0091H122.977V20.5556H132.478V24.8695H122.977V28.9453H134.066V33.3122H118.319V12.6687Z" fill="currentColor"/><path d="M108.61 17.0091V33.3122H103.952V17.0091H97.8387V12.6687H114.724V17.0091H108.61Z" fill="currentColor"/><path d="M80.1763 12.7452L89.7835 24.9196L89.6776 20.4204V12.7452H94.2298V33.3888H90.2334L80.5998 21.2144L80.7321 25.7136V33.3888H76.1799V12.7452H80.1763Z" fill="currentColor"/><path d="M66.134 14.9952V33.1388H61.476V14.9952H66.134Z" fill="currentColor"/><rect x="55.976" y="12.7452" width="15.5" height="4.5" fill="currentColor"/><rect x="55.976" y="28.7921" width="15.5" height="4.5" fill="currentColor"/></svg>
