<svg width="48" height="48" viewBox="0 0 48 48" fill="none" xmlns="http://www.w3.org/2000/svg">
<g clip-path="url(#clip0_6928_3330)">
<path d="M24 31.8385L16.1615 24L24 16.1615V0L1.61458 22.3854C0.723957 23.276 0.723957 24.724 1.61458 25.6146L24 48C24 48 27.4271 45.7135 27.4271 40C27.25 36.9688 26.0417 34.0885 24 31.8385Z" fill="#2684FF"/>
<path d="M17.3854 22.4792L17.5365 22.625L24 16.1615V0L11.8854 12.1146C12.7969 15.9844 14.6927 19.5521 17.3854 22.4792Z" fill="#1D78F2"/>
<path d="M19.0417 20.8958L19.1562 21.0104L24.0052 16.1615V0L13.8698 10.1302C14.5052 14.151 16.3021 17.8906 19.0417 20.8958Z" fill="#126AE5"/>
<path d="M24 16.1615V0L16 8C16.1771 12.2448 17.8646 16.2865 20.7656 19.3958L24 16.1615Z" fill="#0B60DA"/>
<path d="M18.2865 8C18.2865 13.4219 22.1823 17.5677 22.3854 17.776L24 16.1615V0L18.4896 5.51042C18.3542 6.33333 18.2865 7.16667 18.2865 8Z" fill="#0154CE"/>
<path d="M24 16.1615L31.8385 24L24 31.8385V48L46.3854 25.6146C47.276 24.724 47.276 23.276 46.3854 22.3854L24 0C24 0 20.5729 2.28646 20.5729 8C20.75 11.0313 21.9583 13.9115 24 16.1615Z" fill="#2482FD"/>
<path d="M30.6146 25.5208L30.4635 25.375L24 31.8385V48L36.1146 35.8854C35.2031 32.0156 33.3073 28.4479 30.6146 25.5208Z" fill="#1D78F2"/>
<path d="M28.9583 27.1042L28.8438 26.9896L24 31.8385V48L34.1302 37.8698C33.4948 33.849 31.6979 30.1094 28.9583 27.1042Z" fill="#126AE5"/>
<path d="M24 31.8385V48L32 40C31.8229 35.7552 30.1354 31.7135 27.2344 28.6042L24 31.8385Z" fill="#0B60DA"/>
<path d="M29.7135 40C29.7135 34.5781 25.8229 30.4323 25.6146 30.224L24 31.8385V48L29.5104 42.4896C29.6458 41.6667 29.7135 40.8333 29.7135 40Z" fill="#0154CE"/>
<path d="M24 31.8385L16.1615 24H3.42708V27.4271L24 48C24 48 27.4271 45.7135 27.4271 40C27.25 36.9687 26.0417 34.0885 24 31.8385Z" fill="#2684FF"/>
</g>
<defs>
<clipPath id="clip0_6928_3330">
<rect width="48" height="48" fill="white"/>
</clipPath>
</defs>
</svg>
