<svg width="600" height="268" viewBox="0 0 600 268" fill="none" xmlns="http://www.w3.org/2000/svg">
<g clip-path="url(#clip0_75_229)">
<path d="M363.8 53.4004H312.2H296V59.6004C299.2 60.0004 301.8 60.2004 304 60.8004C306.6 61.4004 308.4 62.2004 309.8 63.4004C313.8 66.8004 313.8 73.4004 313.8 85.0004V163.6C313.8 179.6 315.2 202.2 292.6 201.8C282.8 201.6 273 194.8 269.8 182.2H262C265.2 203.4 276.6 217.8 304 217.8C327.2 217.8 348 207 348 170.8V109.8V85.0004C348 73.2004 348 67.2004 352 63.6004C354.6 61.4004 356.6 60.4004 363.8 59.6004V53.6004V53.4004Z" fill="black"/>
<path d="M441.8 53.4004H374V59.2004V59.6004C381 60.2004 383.4 61.4004 385.8 63.6004C389 66.4004 389.6 70.8004 389.6 78.6004C389.6 81.0004 389.6 83.4004 389.6 86.4004V180.4C389.6 183.2 389.6 185.8 389.6 188.2C389.4 195.8 389 200.6 385.8 203.2C383.2 205.4 381.2 206.4 374 207.2V207.6V213.4H441.8H442H476.4L487.2 182H479.4C471.6 199.2 459.4 201.2 448.2 201.2C439 201.2 433 200.6 428.8 198C425.4 195.8 424.2 190 424 180V86.8004V85.0004C424 73.2004 424 66.8004 428 63.4004C430.6 61.2004 434.8 60.4004 442 59.8004L441.8 53.4004Z" fill="black"/>
<path d="M554.6 53.4004H486.8V59.2004V59.6004C493.8 60.2004 496.2 61.4004 498.6 63.6004C501.8 66.4004 502.4 70.8004 502.4 78.6004C502.4 81.0004 502.4 83.4004 502.4 86.4004V180.4C502.4 183.2 502.4 185.8 502.4 188.2C502.2 195.8 501.8 200.6 498.6 203.2C496 205.4 494 206.4 486.8 207.2V207.6V213.4H554.6H554.8H589.2L600 182H592.2C584.4 199.2 572.2 201.2 561 201.2C551.8 201.2 545.8 200.6 541.6 198C538.2 195.8 537 190 536.8 180V86.8004V85.0004C536.8 73.2004 536.8 66.8004 540.8 63.4004C543.4 61.2004 547.6 60.4004 554.8 59.8004V53.4004H554.6Z" fill="black"/>
<path d="M99.5998 262C102.8 260.6 105.8 258.8 108.8 256.8C109.4 256.4 110 256 110.6 255.6C114.2 253 117.4 250 120.6 246.4C124.6 242.2 128.2 237.4 131.6 232.4C134.2 228.6 136.4 224.4 138.6 220.2C146.8 203.8 152.2 185.8 155 168C156.8 156.4 157.6 144.8 157.6 133.4C157.6 122 156.8 110.4 155 98.8C152.2 81 147 62.8 138.6 46.6C137.6 44.8 136.6 42.8 135.6 41C131.2 49 127.6 57.6 124.6 66.6C130 82.6 133.2 99.6 134.4 116.4C134.8 122 135 128 135 133.6C135 139.2 134.8 145.2 134.4 150.8C133 171.4 128.8 192 120.8 211.2C117.8 218.6 114.2 225.8 109.8 232.6C108.8 234.2 108 235.8 106.8 237.4C104.6 240.6 102.4 243.6 99.9998 246.8C97.1998 250.2 94.1998 253.6 90.7998 256.8C87.3998 260.2 83.7998 263.2 79.7998 266C79.3998 266.2 79.1998 266.4 78.7998 266.6V267C85.7998 266.8 93.1998 265 99.5998 262Z" fill="#E30613"/>
<path d="M141.2 262C144.4 260.6 147.4 258.8 150.4 256.8C151 256.4 151.6 256 152.2 255.6C164.4 246.4 173.4 234 180.2 220.6C188.4 204.2 193.8 186.2 196.6 168.4C198.4 156.8 199.2 145.2 199.2 133.8C199.2 122.4 198.4 110.8 196.6 99.2C193.8 81.4 188.6 63.2 180.2 47C174 34.6 165.6 23 154.8 14C151.4 17.6 148.2 21.6 145.2 25.8C146.2 27.2 147.2 28.6 148.2 30C165.4 55.6 173.8 86 175.8 116.6C176.2 122.2 176.4 128.2 176.4 133.8C176.4 139.4 176.2 145.4 175.8 151C173.8 181.6 165.4 212.2 148.2 237.6C146 240.8 143.8 243.8 141.4 247C138.6 250.4 135.6 253.8 132.2 257C128.8 260.4 125.2 263.4 121.2 266.2C120.8 266.4 120.6 266.6 120.2 266.8V267.2C127.6 266.8 134.8 265 141.2 262Z" fill="#E30613"/>
<path d="M194 255.4C206.2 246.2 215.2 233.8 222 220.4C230.2 204 235.6 186 238.4 168.2C240.2 156.6 241 145 241 133.6C241 122.2 240.2 110.6 238.4 99C235.6 81.2 230.4 63 222 46.8C215.2 33.4 206 20.6 194 11.8C184.8 4.6 173.4 0.2 162.2 0V0.4C173.2 8 182.6 18.6 189.8 29.8C207 55.4 215.4 85.8 217.4 116.4C217.8 122 218 128 218 133.6C218 139.2 217.8 145.2 217.4 150.8C215.4 181.4 207 212 189.8 237.4C182.4 248.4 173 259 162 266.8V267.2C173.4 266.8 184.8 262.4 194 255.4Z" fill="#E30613"/>
<path d="M141.2 5C138 6.4 135 8.2 132 10.2C131.4 10.6 130.8 11 130.2 11.4C126.8 14 123.4 17 120.2 20.4C116.2 24.6 112.6 29.4 109.2 34.4C106.6 38.2 104.4 42.4 102.2 46.6C94.0002 63 88.6002 81 85.8002 98.8C84.0002 110.4 83.2002 122 83.2002 133.4C83.2002 144.8 84.0002 156.4 85.8002 168C88.6002 185.8 93.8002 204 102.2 220.2C103.2 222 104.2 224 105.2 225.8C109.6 217.8 113.2 209.2 116.2 200.2C110.8 184.2 107.6 167.2 106.4 150.4C106 144.8 105.8 138.8 105.8 133.2C105.8 127.6 106 121.6 106.4 116C107.8 95.4 112 74.8 120 55.6C123.2 48.4 126.8 41 131.2 34.2C132.2 32.6 133 31 134.2 29.4C136.4 26.2 138.6 23.2 141 20C143.8 16.6 146.8 13.2 150.2 10C153.6 6.6 157.2 3.6 161.2 0.8C161.6 0.6 161.8 0.4 162.2 0.2V0C155 0.2 148 2 141.2 5Z" fill="#E30613"/>
<path d="M99.5996 5C96.3996 6.4 93.3996 8.2 90.3996 10.2C89.7996 10.6 89.1996 11 88.5996 11.4C76.5996 20.6 67.5996 33 60.5996 46.4C52.3996 62.8 46.9996 80.8 44.1996 98.6C42.3996 110.4 41.5996 121.8 41.5996 133.4C41.5996 144.8 42.3996 156.4 44.1996 168C46.9996 185.8 52.1996 204 60.5996 220.2C66.7996 232.6 75.1996 244.2 85.9996 253.2C89.3996 249.6 92.5996 245.6 95.5996 241.4C94.5996 240 93.5996 238.6 92.5996 237.2C75.3996 211.6 66.9996 181.2 64.9996 150.6C64.5996 145 64.3996 139 64.3996 133.4C64.3996 127.8 64.5996 121.8 64.9996 116.2C66.9996 85.6 75.3996 55 92.5996 29.6C94.7996 26.4 96.9996 23.4 99.3996 20.2C102.2 16.8 105.2 13.4 108.6 10.2C112 7 115.6 4 119.4 1.4C119.8 1.2 120 1 120.4 0.8V0C113.4 0.2 106.2 2 99.5996 5Z" fill="#E30613"/>
<path d="M47 11.6C34.8 20.8 25.8 33.2 19 46.6C10.8 63 5.4 81 2.6 98.8C0.8 110.6 0 122 0 133.6C0 145 0.8 156.6 2.6 168.2C5.4 186 10.6 204.2 19 220.4C25.8 233.8 35 246.6 47 255.4C56.2 262 67.4 266.6 78.8 267V266.6C67.6 259 58.4 248.4 51 237.2C33.8 211.6 25.4 181.2 23.4 150.6C23 145 22.8 139 22.8 133.4C22.8 127.8 23 121.8 23.4 116.2C25.4 85.6 33.8 55 51 29.6C58.2 18.6 67.6 8 78.8 0.4V0C67.4 0.2 56 4.6 47 11.6Z" fill="#E30613"/>
<path d="M127.799 253.4C131.199 249.8 134.399 245.8 137.399 241.6C136.399 240.2 135.399 238.8 134.399 237.4C133.399 235.8 132.399 234.2 131.399 232.6C128.199 237.4 124.599 242.4 120.399 246.6C122.599 249 125.399 251.2 127.799 253.4Z" fill="#E30613"/>
<path d="M150.399 256.8C147.599 258.8 144.599 260.4 141.199 262C147.599 265 154.999 266.8 161.999 267V266.6C157.999 263.8 153.999 260.4 150.399 256.8Z" fill="#E30613"/>
<path d="M116.6 266.799C117.8 266.599 118.8 266.399 120 266.399C118.8 265.599 117.8 264.799 116.6 263.999C113.8 261.799 111.2 259.599 108.8 257.199C106 259.199 103 260.799 99.5996 262.399C103.8 264.399 108.6 265.799 113.2 266.599C114.4 266.399 115.4 266.599 116.6 266.799ZM120.4 266.999V266.599C120.2 266.399 120 266.399 119.8 266.199C118.6 266.399 117.6 266.599 116.4 266.599C117.8 266.999 119.2 266.999 120.4 266.999Z" fill="#E30613"/>
<path d="M113.2 13.7998C109.8 17.3998 106.6 21.3998 103.6 25.5998C104.6 26.9998 105.6 28.3998 106.6 29.7998C107.6 31.3998 108.6 32.9998 109.6 34.5998C112.8 29.7998 116.4 24.7998 120.6 20.5998C118.2 17.9998 115.8 15.7998 113.2 13.7998Z" fill="#E30613"/>
<path d="M90.3998 10.4C93.1998 8.4 96.1998 6.8 99.5998 5.2C93.1998 2 85.7998 0.2 78.7998 0V0.4C82.9998 3.2 86.7998 6.6 90.3998 10.4Z" fill="#E30613"/>
<path d="M141.2 5C137 3 132.2 1.6 127.6 0.8C126.4 0.6 125.4 0.4 124.2 0.4C123 0.2 121.8 0 120.4 0V0.4C120.6 0.6 120.8 0.6 121 0.8C122.2 1.6 123.2 2.4 124.4 3.2C127.2 5.4 129.8 7.6 132.2 10C135.2 8.2 138.2 6.4 141.2 5Z" fill="#E30613"/>
</g>
<defs>
<clipPath id="clip0_75_229">
<rect width="600" height="267.2" fill="white"/>
</clipPath>
</defs>
</svg>
