<svg width="1024" height="215" viewBox="0 0 1024 215" fill="none" xmlns="http://www.w3.org/2000/svg">
<path d="M905.013 75.7622L905.325 73.5914L905.949 71.72L906.873 70.173L907.81 68.6136L909.358 67.366L911.231 66.4303L913.092 65.819H914.952H917.125L918.986 66.4303L920.859 67.366L922.095 68.6136L923.331 70.173L924.268 71.72L924.892 73.5914L925.205 75.7622L924.892 77.9454L924.268 79.8168L923.331 81.6757L922.095 82.9232L920.859 84.1683L918.986 85.1015L917.125 85.7228L914.952 86.0348L913.092 85.7228L911.231 85.1015L909.358 84.1683L907.81 82.9232L906.873 81.6757L905.949 79.8168L905.325 77.9454L905.013 75.7622ZM850.044 185.273L853.466 188.073L856.875 190.562L860.296 193.049L864.017 195.538L868.063 197.716L871.784 199.583L875.818 201.449L880.163 203.005L884.209 204.249L888.555 205.494L892.9 206.738L897.246 207.671L901.604 208.293L905.949 208.604L910.607 208.915H914.952H919.61L924.268 208.604L928.613 208.293L932.959 207.671L937.317 206.738L941.662 205.494L946.008 204.249L950.041 203.005L954.399 201.449L958.432 199.583L962.154 197.716L966.199 195.538L969.921 193.049L973.342 190.562L976.751 188.073L980.173 185.273L967.748 171.895L963.09 175.94L958.12 179.362L952.838 182.472L947.556 185.273L941.974 187.45L936.38 189.316L930.174 190.562L923.956 191.495V120.254H941.662V106.878H923.956V96.301L927.065 95.0559L929.862 93.1895L932.347 91.0113L934.52 88.5236L936.068 86.0347L937.317 82.9232L938.241 79.5049V76.0741V73.5914L937.928 71.4081L937.317 68.9254L936.692 67.0541L935.444 64.8833L934.52 63.012L932.959 61.153L931.722 59.5936L929.862 58.0341L928.001 56.7865L926.128 55.8634L924.268 54.9277L922.095 53.992L919.922 53.3682L917.437 53.0562H914.952H912.779L910.294 53.3682L908.122 53.992L905.949 54.9277L904.088 55.8634L902.215 56.7865L900.355 58.0341L898.494 59.5936L897.245 61.153L895.697 63.012L894.761 64.8833L893.524 67.0541L892.9 68.9254L892.276 71.4081L891.976 73.5914V76.0741V79.5049L892.9 82.9232L894.148 86.0347L895.697 88.5236L897.87 91.0113L900.355 93.1895L903.152 95.0559L906.261 96.301V106.878H888.554V120.254H906.261V191.495L900.042 190.562L893.836 189.316L888.242 187.45L882.648 185.273L877.066 182.472L872.096 179.362L867.126 175.94L862.469 171.895L850.044 185.273ZM813.082 106.878L813.395 101.9L813.707 96.6116L814.331 91.6338L815.268 86.656L816.504 81.9876L817.753 77.0097L819.301 72.3438L821.162 67.6779L823.335 63.3239L825.507 58.9698L827.992 54.9277L830.789 50.5736L833.587 46.8309L836.696 42.7888L839.793 39.3704L843.214 35.6402L846.623 32.5212L850.357 29.4148L854.078 26.3083L858.124 23.5012L862.469 20.7067L866.503 18.5234L870.848 16.0408L875.506 14.1694L880.163 12.3105L884.834 10.751L889.791 9.50345L894.761 8.25588L899.731 7.33266L904.701 6.70888L909.983 6.39692L914.953 6.08496L920.235 6.39692L925.517 6.70888L930.474 7.33266L935.444 8.25588L940.414 9.50345L945.384 10.751L950.041 12.3105L954.699 14.1694L959.057 16.0408L963.715 18.5234L967.748 20.7067L972.094 23.5012L976.127 26.3083L979.861 29.4148L983.582 32.5212L987.003 35.6402L990.412 39.3704L993.521 42.7888L996.631 46.8309L999.428 50.5736L1002.23 54.9277L1004.7 58.9698L1006.88 63.3239L1009.06 67.6779L1010.92 72.3438L1012.46 77.0097L1013.71 81.9876L1014.95 86.656L1015.89 91.6338L1016.51 96.6116L1016.81 101.9L1017.12 106.878L1016.81 111.855L1016.51 116.21L1015.89 120.877L1015.26 125.543L1014.33 129.898L1013.09 134.253L1011.85 138.609L1010.29 142.964L1008.74 147.009L1006.88 151.052L1004.7 155.097L1002.52 158.829L1000.35 162.563L997.867 166.296L995.082 170.029L992.285 173.451L979.236 160.075L983.27 154.474L987.315 148.253L990.412 142.031L993.209 135.187L995.082 128.342L996.631 121.498L997.555 114.343L997.867 106.878V102.833L997.555 98.478L996.943 94.4334L996.319 90.39L995.382 86.3454L994.146 82.2995L992.897 78.5692L991.349 74.839L989.8 71.0962L987.927 67.366L985.755 63.9477L983.582 60.5293L981.409 57.4103L978.924 53.992L976.439 51.1974L973.642 48.0785L970.545 45.2839L967.748 42.7888L964.639 40.3061L961.23 37.8109L957.808 35.6402L954.399 33.7688L950.978 31.9099L947.244 30.0385L943.523 28.791L939.49 27.2439L935.756 26.3083L931.723 25.3726L927.689 24.4369L923.644 24.125L919.298 23.813L914.953 23.501L910.919 23.813L906.561 24.125L902.528 24.4369L898.495 25.3726L894.461 26.3083L890.728 27.2439L886.694 28.791L882.961 30.0385L879.239 31.9099L875.818 33.7688L872.409 35.6402L868.987 37.8109L865.579 40.3061L862.469 42.7888L859.672 45.2839L856.563 48.0785L853.778 51.1974L851.293 53.992L848.808 57.4103L846.623 60.5293L844.45 63.9477L842.278 67.366L840.417 71.0962L838.869 74.839L837.308 78.5692L836.071 82.2995L834.823 86.3454L833.899 90.39L833.274 94.4334L832.65 98.478L832.338 102.833V106.878L832.65 114.343L833.587 121.498L835.135 128.342L837.008 135.187L839.793 142.031L842.902 148.253L846.935 154.474L850.981 160.075L837.932 173.451L835.135 170.029L832.338 166.296L829.853 162.563L827.68 158.829L825.507 155.097L823.335 151.052L821.474 147.009L819.926 142.964L818.365 138.609L817.128 134.253L815.88 129.898L814.956 125.543L814.331 120.877L813.707 116.21L813.395 111.855L813.082 106.878ZM726.135 138.919V76.0741H742.905V124.61H771.475V138.919H726.135ZM666.821 138.919H713.71V124.61H682.655V113.722H708.116V100.656H682.655V89.7675H712.162V76.0741H666.821V138.919ZM595.082 107.499L595.382 103.766L595.695 100.344L596.319 97.2342L597.255 94.1227L598.492 91.0113L600.04 88.2117L601.601 85.7228L603.461 83.547L605.634 81.3638L607.807 79.5049L610.604 77.9454L613.089 76.6978L616.198 75.4628L619.295 74.839L622.404 74.2152H626.138L631.095 74.5272L633.58 74.8391L636.065 75.4629L638.238 76.3861L640.423 77.3218L642.284 78.2575L644.145 79.505L646.005 81.052L647.566 82.6115L649.114 84.4791L650.351 86.3455L651.287 88.5238L652.224 90.7008L652.836 93.1897L653.46 95.6786H636.69L636.065 93.5003L635.141 91.9458L634.205 90.7008L632.969 89.457L631.408 88.8344L629.859 88.2119L627.999 87.9013H626.438L624.577 88.2119H623.029L621.468 88.8344L619.92 89.457L618.683 90.3901L617.435 91.3233L615.574 93.5003L614.026 96.6118L612.777 99.722L612.153 103.456V107.499V111.544L613.089 115.277L614.026 118.699L615.886 121.498L618.059 123.987L619.295 124.921L620.544 125.854L622.092 126.476L623.653 126.787L625.514 127.099L627.374 127.409L630.484 127.099L633.281 126.476L635.766 125.543L637.938 124.299V116.21H626.75V103.767H653.772V132.077L650.663 134.254L647.254 136.12L644.145 137.676L640.723 138.92L637.314 139.853L634.205 140.787L631.095 141.098H628.311H624.265L620.856 140.475L617.435 139.853L614.026 138.919L611.229 137.676L608.431 136.12L605.946 134.254L603.774 132.387L601.913 129.898L600.04 127.409L598.492 124.61L597.255 121.81L596.319 118.388L595.695 114.966L595.382 111.233L595.082 107.499ZM551.29 116.522L559.357 92.567L567.436 116.522H551.29ZM526.441 138.919H543.523L546.632 129.588H571.781L575.203 138.919H592.285L568.372 76.0741H550.354L526.441 138.919ZM463.393 138.919H478.927V101.278L500.979 138.919H518.674V76.0741H503.152V113.1L480.476 76.0741H463.393V138.919ZM392.591 113.722V105.633H417.441V80.1287H427.068V105.633H452.217V113.722H427.068V138.919H417.441V113.722H392.591ZM338.247 138.919H385.136V124.61H354.081V113.722H379.542V100.656H354.081V89.7675H383.588V76.0741H338.247V138.919ZM268.057 138.919H283.891V101.278L305.631 138.919H323.338V76.0741H307.804V113.1L285.14 76.0741H268.057V138.919ZM197.255 138.919H214.026V114.655H236.69V138.919H253.148V76.0741H236.69V99.7219H214.026V76.0741H197.255V138.919ZM137.929 138.919H184.831V124.61H153.775V113.722H179.236V100.656H153.775V89.7675H183.27V76.0741H137.929V138.919ZM68.9902 113.1V116.832L69.2998 120.254L70.2313 123.366L71.1628 126.165L72.4053 128.654L73.6478 130.831L75.2012 133.01L77.0642 134.876L78.9274 136.432L81.1013 137.676L83.2754 138.609L85.7603 139.542L88.244 140.475L91.0398 140.787L93.5235 141.098H96.3181H99.114L101.598 140.787L104.394 140.475L106.877 139.542L109.051 138.609L111.536 137.676L113.71 136.432L115.573 134.876L117.436 133.01L118.99 130.831L120.232 128.654L121.473 126.165L122.406 123.366L123.027 120.254L123.647 116.832V113.1V76.0741H106.877V115.589L106.568 118.076L105.946 120.565L105.325 122.431L104.083 123.987L102.531 125.232L100.977 126.165L98.8032 126.787H96.3183H93.8346L91.6606 126.165L89.7975 125.232L88.5551 123.987L87.3126 122.431L86.3811 120.565L86.0702 118.076L85.7607 115.589V76.0741H68.9905L68.9902 113.1ZM6.87793 138.919H23.3373V121.188L28.9278 114.033L43.524 138.919H63.0888L40.1075 101.9L60.2942 76.0741H41.0391L23.3373 98.478V76.0741H6.87793V138.919Z" fill="#003369"/>
</svg>
