<svg width="716" height="227" viewBox="0 0 716 227" fill="none" xmlns="http://www.w3.org/2000/svg">
<g clip-path="url(#clip0_37_249)">
<mask id="mask0_37_249" style="mask-type:luminance" maskUnits="userSpaceOnUse" x="-7038" y="-4993" width="7936" height="5507">
<path d="M-7037.66 513.486H897.604V-4992.99H-7037.66V513.486Z" fill="white"/>
</mask>
<g mask="url(#mask0_37_249)">
<path d="M260.203 133.734C260.203 93.0445 230.581 54.4548 184.509 54.4548C136.645 54.4548 102.836 93.9405 102.836 138.822C102.836 151.38 105.099 163.238 109.357 173.9C107.683 173.651 105.923 173.527 104.066 173.527H52.0089V29.3258C52.0089 12.2678 41.8448 3.58844 27.7825 3.58844C13.7202 3.58844 3.54297 12.2678 3.54297 29.3258V194.169C3.54297 209.729 15.2114 218.395 27.7825 218.395H104.066C117.095 218.395 125.519 211.842 127.71 201.547C141.681 215.027 161.034 223.183 184.509 223.183C219.808 223.183 257.803 208.225 257.803 185.49C257.803 173.527 248.829 165.449 238.358 165.449C227.585 165.449 213.523 180.107 190.493 180.107C160.577 180.107 153.094 163.951 153.094 154.075H237.462C252.42 154.075 260.203 150.19 260.203 133.734ZM153.094 122.072C153.094 111.6 165.063 93.9405 183.312 93.9405C201.56 93.9405 213.523 111.6 213.523 122.072H153.094Z" fill="#2056AE"/>
<path d="M356.517 54.4561C336.477 54.4561 323.912 60.7416 316.43 72.4035C313.434 65.5228 305.658 57.4452 293.093 57.4452C279.338 57.4452 269.763 68.211 269.763 81.6781V195.962C269.763 209.423 279.338 220.195 293.093 220.195C306.861 220.195 316.43 209.423 316.43 195.962V122.073C316.43 105.911 326.005 93.9418 342.161 93.9418C358.316 93.9418 367.892 105.911 367.892 122.073V195.962C367.892 209.423 377.467 220.195 391.228 220.195C404.983 220.195 414.559 209.423 414.559 195.962V109.495C414.559 71.2066 388.828 54.4561 356.517 54.4561Z" fill="#2056AE"/>
<path d="M538.706 175.318H489.338L553.357 89.4597C557.256 84.0767 559.349 80.1785 559.349 75.9925C559.349 71.8 558.145 67.9214 555.163 64.9323C550.669 60.4389 546.182 59.242 537.503 59.242H447.753C432.794 59.242 423.219 65.8219 423.219 80.7868C423.219 95.7386 432.794 102.325 447.753 102.325H488.743L428.909 184.593C422.028 194.168 421.728 198.361 421.728 201.945C421.728 204.941 422.624 211.226 428.602 215.111C432.794 217.505 435.489 218.401 444.168 218.401H538.706C553.665 218.401 563.234 211.815 563.234 196.857C563.234 181.898 553.665 175.318 538.706 175.318Z" fill="#2056AE"/>
<path d="M690.359 165.449C679.594 165.449 665.531 180.107 642.489 180.107C612.578 180.107 605.096 163.945 605.096 154.075H689.47C704.428 154.075 712.205 150.19 712.205 133.734C712.205 93.0444 682.583 54.4548 636.511 54.4548C588.64 54.4548 554.838 93.9405 554.838 138.822C554.838 185.79 586.252 223.183 636.511 223.183C671.81 223.183 709.811 208.225 709.811 185.49C709.811 173.527 700.831 165.449 690.359 165.449ZM635.314 93.9405C653.562 93.9405 665.531 111.6 665.531 122.072H605.096C605.096 111.6 617.065 93.9405 635.314 93.9405Z" fill="#2056AE"/>
</g>
</g>
<defs>
<clipPath id="clip0_37_249">
<rect width="715.748" height="226.772" fill="white"/>
</clipPath>
</defs>
</svg>
