<svg width="1349" height="510" viewBox="0 0 1349 510" fill="none" xmlns="http://www.w3.org/2000/svg">
<path d="M130 130C130 60.9584 185.958 5 255 5C324.042 5 380 60.9584 380 130H130ZM130 380C130 310.958 185.958 255 255 255C185.958 255 130 199.042 130 130C60.9584 130 5 185.958 5 255C5 324.042 60.9584 380 130 380ZM130 380C130 449.042 185.958 505 255 505C324.042 505 380 449.042 380 380H130ZM255 255C324.042 255 380 310.958 380 380C449.042 380 505 324.042 505 255C505 185.958 449.011 130 380 130C380 199.042 324.042 255 255 255Z" fill="#00827A"/>
<path d="M820.083 130H897.555V379.97H840.146V211.853L766.724 379.97L689.433 211.641V379.97H635.862V130H712.427L767.63 259.381L820.083 130ZM1101.78 203.816C1101.78 154.444 1063.83 125.74 1018.45 125.74C973.455 125.74 924.386 152.087 924.386 203.272C924.386 247.658 973.244 270.47 1001.13 277.661C1016.45 281.71 1055.1 286.031 1055.1 313.648C1055.1 339.905 1028.08 347.066 1007.87 347.066C981.825 347.066 966.536 328.816 968.772 301.259H917.557C915.775 363.442 958.046 386.617 1007.42 387.735C1064.49 389.034 1108.06 364.651 1108.06 309.689C1108.06 254.426 1058.63 245.724 1019.99 233.185C1005 228.32 977.293 223.999 977.293 198.498C977.293 177.136 995.724 166.923 1014.58 166.923C1038.84 166.923 1051.41 178.918 1053.22 203.846H1101.78M1209.8 129.728H1130.15V379.486H1209.8C1276.03 379.486 1343.2 341.234 1343.2 254.849C1343.2 168.404 1276 129.728 1209.8 129.728ZM1206.2 334.013L1184.15 334.073V334.013V175.625H1206.2C1266.94 175.625 1288.81 215.237 1288.81 254.819C1288.81 294.401 1266.9 334.013 1206.2 334.013Z" fill="#2F3E4A"/>
</svg>
