<svg width="49" height="48" viewBox="0 0 49 48" fill="none" xmlns="http://www.w3.org/2000/svg">
<g clip-path="url(#clip0_5384_4023)">
<mask id="mask0_5384_4023" style="mask-type:luminance" maskUnits="userSpaceOnUse" x="0" y="6" width="48" height="36">
<path d="M0.00946045 6.94691H47.8335V41.053H0.00946045V6.94691Z" fill="white"/>
</mask>
<g mask="url(#mask0_5384_4023)">
<path fill-rule="evenodd" clip-rule="evenodd" d="M19.867 10.682C21.4107 9.04128 23.5593 8.02527 25.9329 8.02527C29.0978 8.02527 31.8406 9.82033 33.3175 12.495C34.6285 11.8966 36.0485 11.5877 37.4845 11.5885C43.1812 11.5885 47.8054 16.3454 47.8054 22.2152C47.8054 28.0851 43.1812 32.842 37.4845 32.842C36.7883 32.842 36.1096 32.7705 35.445 32.6355C34.1527 34.9871 31.6824 36.5847 28.8692 36.5847C27.7238 36.587 26.5932 36.3217 25.5637 35.8092C24.2538 38.9505 21.2033 41.1585 17.6516 41.1585C13.9417 41.1585 10.7945 38.771 9.58132 35.4143C9.04136 35.5306 8.49098 35.5891 7.93912 35.5888C3.52595 35.5888 -0.0432739 31.8909 -0.0432739 27.3494C-0.0432739 24.2978 1.56375 21.6412 3.94792 20.2051C3.44212 19.0155 3.18177 17.7323 3.18309 16.4355C3.18309 11.1939 7.35011 6.95757 12.4842 6.95757C15.4908 6.95757 18.1809 8.42055 19.8688 10.6913" fill="#00A1E0"/>
</g>
<path fill-rule="evenodd" clip-rule="evenodd" d="M6.92787 24.6828C6.8978 24.7629 6.93859 24.7796 6.94826 24.7937C7.03811 24.8602 7.12936 24.9083 7.22079 24.9623C7.70958 25.2262 8.17024 25.3034 8.65199 25.3034C9.63309 25.3034 10.2432 24.7702 10.2432 23.9122V23.8953C10.2432 23.1019 9.55397 22.8129 8.91045 22.6065L8.82623 22.5786C8.3392 22.4174 7.91898 22.2771 7.91898 21.9504V21.9337C7.91898 21.6536 8.16514 21.4472 8.54492 21.4472C8.96689 21.4472 9.46975 21.5906 9.79151 21.7721C9.79151 21.7721 9.8868 21.8349 9.92144 21.7411C9.94025 21.6903 10.1043 21.242 10.1219 21.1918C10.1405 21.1392 10.1078 21.0995 10.0742 21.079C9.705 20.8493 9.19511 20.6931 8.66764 20.6931L8.56971 20.6935C7.67125 20.6935 7.04356 21.2481 7.04356 22.0415V22.0586C7.04356 22.8951 7.7363 23.1679 8.38334 23.3564L8.48742 23.3895C8.95863 23.5374 9.36654 23.6659 9.36654 24.0034V24.0202C9.36654 24.3308 9.10105 24.5624 8.67555 24.5624C8.5101 24.5624 7.98281 24.5595 7.41138 24.1908C7.34228 24.1497 7.3029 24.12 7.24962 24.0868C7.22149 24.0694 7.15116 24.038 7.12057 24.1321L6.92716 24.6814M21.292 24.6814C21.2619 24.7614 21.3027 24.7781 21.3127 24.7923C21.4022 24.8587 21.4938 24.9068 21.5852 24.9609C22.074 25.2247 22.5347 25.3019 23.0164 25.3019C23.9975 25.3019 24.6076 24.7688 24.6076 23.9107V23.8939C24.6076 23.1005 23.9202 22.8115 23.2749 22.605L23.1907 22.5772C22.7036 22.416 22.2834 22.2756 22.2834 21.9489V21.9322C22.2834 21.6522 22.5296 21.4458 22.9094 21.4458C23.3313 21.4458 23.8324 21.5892 24.156 21.7707C24.156 21.7707 24.2512 21.8335 24.2861 21.7396C24.3047 21.6888 24.4689 21.2406 24.4847 21.1903C24.5036 21.1377 24.4707 21.0981 24.4373 21.0776C24.068 20.8478 23.5582 20.6917 23.0307 20.6917L22.9326 20.692C22.0341 20.692 21.4064 21.2467 21.4064 22.0401V22.0572C21.4064 22.8937 22.0992 23.1665 22.7462 23.355L22.8501 23.388C23.3231 23.5359 23.7292 23.6645 23.7292 24.0019V24.0188C23.7292 24.3294 23.4637 24.5609 23.0382 24.5609C22.8724 24.5609 22.3437 24.558 21.7741 24.1893C21.705 24.1482 21.6645 24.1199 21.6121 24.0854C21.5944 24.0739 21.5116 24.0409 21.4833 24.1306L21.2899 24.6799M31.1008 22.9998C31.1008 23.4844 31.0122 23.8668 30.8388 24.1378C30.6658 24.4053 30.4046 24.5363 30.0406 24.5363C29.6766 24.5363 29.4164 24.4064 29.2459 24.1396C29.0741 23.8704 28.9874 23.4862 28.9874 23.0015C28.9874 22.5169 29.0746 22.1363 29.2459 21.8689C29.4161 21.6032 29.6749 21.4757 30.0406 21.4757C30.4063 21.4757 30.6665 21.6045 30.8388 21.8689C31.0133 22.1363 31.1008 22.5169 31.1008 23.0015M31.9202 22.1022C31.8395 21.824 31.7144 21.5799 31.5474 21.3752C31.3802 21.1706 31.1694 21.0054 30.918 20.887C30.6683 20.7676 30.3729 20.7075 30.0388 20.7075C29.7048 20.7075 29.4111 20.768 29.1597 20.887C28.91 21.0062 28.6973 21.1706 28.5303 21.3752C28.3636 21.5799 28.2384 21.824 28.1575 22.1022C28.0775 22.3787 28.0369 22.6802 28.0369 23.0015C28.0369 23.3229 28.0775 23.6244 28.1575 23.9009C28.2379 24.1791 28.3632 24.4232 28.5303 24.6279C28.6975 24.8325 28.91 24.9959 29.1597 25.1125C29.4111 25.2289 29.7065 25.2881 30.0388 25.2881C30.3711 25.2881 30.6665 25.2289 30.9162 25.1125C31.1659 24.9962 31.3786 24.8325 31.5456 24.6279C31.7125 24.4232 31.8375 24.1791 31.9184 23.9009C31.9982 23.6244 32.0388 23.3229 32.0388 23.0015C32.0388 22.682 31.9982 22.3787 31.9184 22.1022M38.6524 24.3999C38.6255 24.3186 38.5478 24.3493 38.5478 24.3493C38.4288 24.3958 38.3017 24.4389 38.1663 24.4604C38.0299 24.4823 37.8779 24.4932 37.7179 24.4932C37.3223 24.4932 37.0059 24.3728 36.7808 24.1342C36.554 23.8955 36.4274 23.5113 36.4292 22.9908C36.4304 22.5169 36.5426 22.1615 36.7439 21.8886C36.9426 21.6194 37.2485 21.4793 37.6529 21.4793C37.9905 21.4793 38.2489 21.5194 38.5197 21.6059C38.5197 21.6059 38.5839 21.6344 38.6146 21.5481C38.6866 21.3452 38.7397 21.1998 38.8168 20.9773C38.8386 20.9135 38.7852 20.8866 38.7657 20.8789C38.6595 20.8365 38.4088 20.7671 38.2189 20.7378C38.0413 20.7102 37.8356 20.6958 37.6035 20.6958C37.2589 20.6958 36.9529 20.7559 36.691 20.8751C36.429 20.9941 36.2074 21.1587 36.0316 21.3634C35.8558 21.568 35.7222 21.8121 35.6325 22.0904C35.5437 22.3668 35.4989 22.6702 35.4989 22.9915C35.4989 23.6844 35.6817 24.2462 36.0439 24.6573C36.4061 25.0702 36.9512 25.2784 37.6615 25.2784C38.0817 25.2784 38.5125 25.1917 38.8219 25.0666C38.8219 25.0666 38.881 25.0375 38.8553 24.9671L38.6531 24.3999M40.0861 22.533C40.1253 22.2638 40.1976 22.0394 40.3112 21.8653C40.4812 21.5996 40.7402 21.4542 41.1041 21.4542C41.4681 21.4542 41.709 21.6003 41.8813 21.8653C41.9956 22.0403 42.0455 22.2728 42.0641 22.533L40.0773 22.5327L40.0861 22.533ZM42.8465 21.9407C42.7767 21.6732 42.6039 21.4021 42.4914 21.2783C42.312 21.0826 42.138 20.9444 41.9639 20.869C41.7126 20.7599 41.4423 20.7039 41.1692 20.7044C40.8228 20.7044 40.5081 20.7642 40.2531 20.8857C39.9982 21.0081 39.7837 21.1747 39.6149 21.3829C39.4463 21.5912 39.3195 21.8371 39.2386 22.1189C39.1578 22.3972 39.117 22.7023 39.117 23.0218C39.117 23.3485 39.1593 23.6519 39.2427 23.9265C39.3269 24.203 39.4625 24.4453 39.6453 24.6464C39.8282 24.8492 40.062 25.0072 40.3433 25.1185C40.6229 25.2289 40.9622 25.2861 41.3508 25.2849C42.1526 25.2822 42.5745 25.1 42.7469 25.0012C42.7776 24.9837 42.8066 24.9533 42.7704 24.8659L42.5893 24.3471C42.5615 24.2698 42.4849 24.2978 42.4849 24.2978C42.2862 24.3735 42.0049 24.5096 41.3455 24.5078C40.9148 24.5071 40.5965 24.3773 40.3961 24.1739C40.1921 23.9657 40.0902 23.6623 40.0743 23.2315L42.8523 23.2336C42.8523 23.2336 42.9255 23.2329 42.933 23.1601C42.936 23.1299 43.0282 22.5785 42.8502 21.9412L42.8465 21.9407ZM17.8796 22.533C17.9188 22.2638 17.9912 22.0394 18.1046 21.8653C18.2748 21.5996 18.5336 21.4542 18.8976 21.4542C19.2615 21.4542 19.5024 21.6003 19.6747 21.8653C19.7888 22.0403 19.8388 22.2728 19.8576 22.533L17.8708 22.5327L17.8796 22.533ZM20.64 21.9407C20.5704 21.6732 20.3974 21.4021 20.2848 21.2783C20.1055 21.0826 19.9314 20.9444 19.7574 20.869C19.5061 20.7599 19.2357 20.7039 18.9626 20.7044C18.6163 20.7044 18.3016 20.7642 18.0466 20.8857C17.7917 21.0081 17.5772 21.1747 17.4084 21.3829C17.2401 21.5912 17.113 21.8371 17.0321 22.1189C16.9514 22.3972 16.9108 22.7023 16.9108 23.0218C16.9108 23.3485 16.9528 23.6519 17.0367 23.9265C17.1207 24.203 17.2565 24.4453 17.4376 24.6464C17.6204 24.8492 17.8543 25.0072 18.1356 25.1185C18.4151 25.2289 18.7527 25.2861 19.143 25.2849C19.9448 25.2822 20.3668 25.1 20.5391 25.0012C20.5697 24.9837 20.5989 24.9533 20.5625 24.8659L20.3814 24.3471C20.3534 24.2698 20.2768 24.2978 20.2768 24.2978C20.0781 24.3735 19.7968 24.5096 19.1374 24.5078C18.7084 24.5071 18.3884 24.3773 18.188 24.1739C17.984 23.9657 17.882 23.6623 17.8662 23.2315L20.6442 23.2336C20.6442 23.2336 20.7174 23.2329 20.7249 23.1601C20.7279 23.1299 20.82 22.5785 20.6419 21.9412L20.64 21.9407ZM11.884 24.3819C11.7751 24.2933 11.76 24.2716 11.724 24.2139C11.669 24.1272 11.6408 24.0039 11.6408 23.8459C11.6408 23.5982 11.7217 23.4187 11.8887 23.2984C11.887 23.2988 12.1279 23.0866 12.694 23.0938C12.946 23.0984 13.1974 23.1203 13.4465 23.1593V24.4464H13.4469C13.4469 24.4464 13.0952 24.5238 12.6979 24.5482C12.1335 24.5828 11.8838 24.3823 11.8856 24.3828L11.884 24.3819ZM12.9882 22.3894C12.8756 22.381 12.7297 22.3769 12.5556 22.3769C12.3183 22.3769 12.0879 22.407 11.8734 22.4663C11.6572 22.5259 11.462 22.6181 11.295 22.7409C11.1275 22.8629 10.9897 23.0226 10.8923 23.2076C10.7941 23.3943 10.7439 23.6133 10.7439 23.861C10.7439 24.1123 10.7867 24.3295 10.8711 24.5072C10.9538 24.6835 11.0783 24.8359 11.2333 24.9506C11.3875 25.0651 11.5779 25.1499 11.7977 25.2001C12.0157 25.2509 12.2618 25.2766 12.5326 25.2766C12.8174 25.2766 13.1005 25.2522 13.3748 25.205C13.6084 25.1638 13.8411 25.1176 14.0728 25.0664C14.1653 25.0447 14.268 25.0161 14.268 25.0161C14.3366 24.9984 14.3313 24.9235 14.3313 24.9235L14.3297 22.3386C14.3297 21.7714 14.1813 21.3496 13.8884 21.0893C13.5965 20.829 13.1693 20.6979 12.6154 20.6979C12.4079 20.6979 12.0721 20.7267 11.8717 20.7678C11.8717 20.7678 11.2668 20.8877 11.0172 21.0873C11.0172 21.0873 10.9623 21.1218 10.9922 21.1998L11.1891 21.7384C11.2136 21.8082 11.2802 21.7843 11.2802 21.7843C11.2802 21.7843 11.3011 21.7759 11.3257 21.761C11.8585 21.4648 12.5337 21.4738 12.5337 21.4738C12.8326 21.4738 13.0646 21.5357 13.2194 21.6569C13.3708 21.7755 13.4479 21.9548 13.4479 22.3318V22.4515C13.2106 22.4164 12.9908 22.3961 12.9908 22.3961L12.9882 22.3894ZM35.3178 20.93C35.3218 20.9206 35.3239 20.9104 35.3239 20.9001C35.324 20.8898 35.322 20.8796 35.3181 20.87C35.3142 20.8605 35.3085 20.8519 35.3013 20.8447C35.2941 20.8375 35.2855 20.8318 35.2761 20.8281C35.2288 20.8098 34.993 20.759 34.8119 20.7475C34.4638 20.7252 34.2704 20.7852 34.0963 20.8649C33.9244 20.9441 33.7341 21.0713 33.6286 21.2185L33.6283 20.8739C33.6283 20.8265 33.5954 20.7882 33.5486 20.7882H32.8383C32.7922 20.7882 32.7588 20.8265 32.7588 20.8739V25.0923C32.7589 25.115 32.7678 25.1369 32.7836 25.153C32.7993 25.1691 32.8207 25.1782 32.8431 25.1782H33.571C33.5933 25.1782 33.6146 25.1691 33.6304 25.153C33.6462 25.1369 33.655 25.115 33.655 25.0923V22.9741C33.655 22.6905 33.6856 22.4086 33.7466 22.2309C33.8067 22.0552 33.8885 21.915 33.9892 21.8145C34.0854 21.7174 34.203 21.6453 34.3321 21.6045C34.4533 21.5689 34.5788 21.5509 34.7049 21.551C34.8499 21.551 35.009 21.589 35.009 21.589C35.0625 21.5951 35.0922 21.5617 35.1103 21.5125C35.1579 21.3831 35.2932 20.9956 35.3195 20.9184" fill="#FFFFFE"/>
<path fill-rule="evenodd" clip-rule="evenodd" d="M28.5177 18.9833C28.4277 18.9556 28.3362 18.9334 28.2436 18.9169C28.119 18.8957 27.9929 18.8857 27.8666 18.8871C27.365 18.8871 26.9695 19.0318 26.6919 19.3176C26.4162 19.6012 26.2286 20.0333 26.1345 20.6018L26.1006 20.7936H25.471C25.471 20.7936 25.3942 20.7904 25.378 20.876L25.2746 21.4648C25.2674 21.5212 25.2911 21.5564 25.365 21.556H25.9779L25.356 25.1C25.3073 25.3854 25.2516 25.6202 25.1898 25.7981C25.129 25.9736 25.0696 26.1052 24.9964 26.2007C24.9256 26.2932 24.8584 26.3612 24.7426 26.4009C24.6469 26.4337 24.5368 26.4488 24.4162 26.4488C24.3491 26.4488 24.2597 26.4373 24.1938 26.4238C24.1279 26.4106 24.0936 26.3955 24.0442 26.3743C24.0442 26.3743 23.9723 26.3463 23.944 26.4199C23.9209 26.48 23.7576 26.9387 23.7382 26.9954C23.7186 27.0514 23.7462 27.0956 23.781 27.1083C23.8626 27.1381 23.9232 27.1571 24.0343 27.1839C24.1887 27.221 24.3188 27.2234 24.4407 27.2234C24.696 27.2234 24.9286 27.1867 25.1215 27.1157C25.3156 27.044 25.4845 26.9193 25.634 26.7504C25.7956 26.5682 25.8972 26.3774 25.9944 26.1171C26.0906 25.8591 26.1725 25.5389 26.2381 25.1657L26.863 21.556H27.7766C27.7766 21.556 27.8536 21.5589 27.8696 21.4736L27.973 20.8848C27.9802 20.8285 27.9566 20.7933 27.8824 20.7936H26.9957C27.0001 20.7732 27.0404 20.4547 27.1422 20.155C27.1856 20.027 27.2674 19.9238 27.3367 19.8529C27.4013 19.7853 27.481 19.7347 27.5689 19.7053C27.6653 19.6749 27.7657 19.6601 27.8666 19.6615C27.9501 19.6615 28.032 19.6717 28.0945 19.685C28.1804 19.7037 28.2138 19.7136 28.2363 19.7204C28.3267 19.7486 28.3389 19.7213 28.3566 19.6766L28.5687 19.0821C28.5905 19.0182 28.5374 18.9912 28.5177 18.9833ZM16.1267 25.1075C16.1267 25.1549 16.0936 25.1935 16.0472 25.1935H15.3117C15.2651 25.1935 15.2321 25.1549 15.2321 25.1075V19.0639C15.2321 19.0167 15.2651 18.9785 15.3117 18.9785H16.0472C16.0936 18.9785 16.1267 19.0167 16.1267 19.0639V25.1075Z" fill="#FFFFFE"/>
</g>
<defs>
<clipPath id="clip0_5384_4023">
<rect width="47.9999" height="34.2856" fill="white" transform="translate(0 6.85757)"/>
</clipPath>
</defs>
</svg>
