<svg width="48" height="48" viewBox="0 0 48 48" fill="none" xmlns="http://www.w3.org/2000/svg">
<path d="M0 12V36H25L48 12H0Z" fill="#1976D2"/>
<path d="M27.5 18H23V27.5L19.1979 18H15.6979L12.6146 25.8854C12.2083 24.1302 10.3542 23.4635 9.19792 23.1979C6.19792 22.401 6 22 6 21.401C6 19.901 10 20.599 11 21C11.3021 20.1979 11.901 18.6979 11.901 18.6979C11.901 18.6979 10.8021 18 7.40104 18C4 18 3 20.099 3 21.401C3 22.6979 3.69792 24.1979 5.59896 24.8021C7.59896 25.401 9.09896 25.5 9.09896 26.5C9.09896 27.5 5.69792 27.6979 3.80208 26.5L3 29.099C3 29.099 4.09896 30 7.40104 30C9.18229 30 10.5677 29.4948 11.4792 28.776L11 30H14.5L15.099 28.1979C15.8021 28.5 16.599 28.6979 17.5 28.6979C18.401 28.6979 19.1979 28.5 19.901 28.1979L20.5 30H26V27H27.5C30 27 32 25 32 22.5C32 20 30 18 27.5 18ZM17.5 26.099C16.901 26.099 16.401 26 16 25.6979L17.5 21.401L19 25.6979C18.599 26 18.099 26.099 17.5 26.099ZM27.5 24H26V21H27.5C28.3021 21 29 21.6979 29 22.5C29 23.3021 28.3021 24 27.5 24Z" fill="white"/>
</svg>
