<svg width="48" height="48" viewBox="0 0 48 48" fill="none" xmlns="http://www.w3.org/2000/svg">
<g clip-path="url(#clip0_6927_3242)">
<path fill-rule="evenodd" clip-rule="evenodd" d="M37.5664 6.23357C41.5194 8.95355 44.5698 12.7903 46.326 17.2542C48.0853 21.7151 48.4677 26.6013 47.4275 31.2824C46.3872 35.9636 43.9732 40.2287 40.4914 43.53C40.0845 43.9247 39.6102 44.2459 39.0901 44.4723C38.57 44.7018 38.0131 44.8364 37.4471 44.867C36.8811 44.9007 36.312 44.8334 35.7704 44.6651C35.2289 44.4999 34.721 44.2398 34.2682 43.8941C32.7934 42.7957 31.1535 41.9421 29.4095 41.3669C27.6625 40.7886 25.839 40.4949 24.0002 40.4949C22.1614 40.4949 20.3348 40.7886 18.5908 41.3669C16.8469 41.9421 15.2039 42.7957 13.7291 43.8941C13.2824 44.2368 12.7807 44.4999 12.2422 44.6682C11.7037 44.8364 11.1407 44.9068 10.5778 44.8762C10.0148 44.8487 9.46101 44.7202 8.94393 44.4968C8.42686 44.2735 7.95263 43.9614 7.54264 43.5728C4.03635 40.2593 1.60398 35.9697 0.563715 31.258C-0.476546 26.5462 -0.0757392 21.6325 1.71412 17.1533C3.50398 12.671 6.59723 8.83117 10.5961 6.12955C14.595 3.42793 19.3129 1.98686 24.1409 1.9991C28.9384 2.03888 33.6134 3.51666 37.5664 6.23357ZM28.6385 37.2578C30.1132 36.6704 31.4533 35.7892 32.5762 34.6694C33.6991 33.5465 34.5802 32.2095 35.1677 30.7348C35.7551 29.2631 36.0366 27.6844 35.9938 26.0995C35.9938 22.9206 34.7302 19.8732 32.4814 17.6244C30.2326 15.3756 27.1822 14.112 24.0002 14.112C20.8182 14.112 17.7678 15.3756 15.519 17.6244C13.2702 19.8732 12.0066 22.9206 12.0066 26.0995C11.9638 27.6844 12.2452 29.2631 12.8327 30.7348C13.4201 32.2095 14.3013 33.5465 15.4241 34.6694C16.547 35.7892 17.8871 36.6704 19.3588 37.2578C20.8335 37.8453 22.4123 38.1268 24.0002 38.0839C25.585 38.1268 27.1638 37.8453 28.6385 37.2578Z" fill="#62D84E"/>
</g>
<defs>
<clipPath id="clip0_6927_3242">
<rect width="48" height="48" fill="white"/>
</clipPath>
</defs>
</svg>
