<svg width="48" height="48" viewBox="0 0 48 48" fill="none" xmlns="http://www.w3.org/2000/svg">
<g clip-path="url(#clip0_6732_579)">
<path d="M24.4638 26.6879C31.8335 26.6879 37.8078 20.7136 37.8078 13.3439C37.8078 5.97425 31.8335 -4.57764e-05 24.4638 -4.57764e-05C17.0941 -4.57764e-05 11.1198 5.97425 11.1198 13.3439C11.1198 20.7136 17.0941 26.6879 24.4638 26.6879Z" fill="#036C70"/>
<path d="M35.5835 37.8076C42.3391 37.8076 47.8155 32.3312 47.8155 25.5757C47.8155 18.8201 42.3391 13.3437 35.5835 13.3437C28.828 13.3437 23.3516 18.8201 23.3516 25.5757C23.3516 32.3312 28.828 37.8076 35.5835 37.8076Z" fill="#1A9BA1"/>
<path d="M26.1317 46.7033C31.3518 46.7033 35.5836 42.4715 35.5836 37.2513C35.5836 32.0312 31.3518 27.7994 26.1317 27.7994C20.9115 27.7994 16.6797 32.0312 16.6797 37.2513C16.6797 42.4715 20.9115 46.7033 26.1317 46.7033Z" fill="#37C6D0"/>
<path opacity="0.1" d="M26.6884 12.0427V35.7727C26.6829 36.5973 26.1832 37.338 25.4208 37.652C25.178 37.7547 24.9171 37.8076 24.6535 37.8077H16.6916C16.6805 37.6186 16.6805 37.4407 16.6805 37.2517C16.6768 37.066 16.6842 36.8804 16.7027 36.6956C16.9062 33.1411 19.096 30.0049 22.3628 28.5892V26.5209C15.0924 25.3688 10.1326 18.541 11.2847 11.2707C11.2927 11.2203 11.301 11.17 11.3095 11.1197C11.3649 10.7447 11.4429 10.3734 11.5431 10.0077H24.6535C25.7756 10.012 26.6842 10.9206 26.6884 12.0427Z" fill="black"/>
<path opacity="0.2" d="M23.5417 11.1197H11.3098C10.0741 18.377 14.9555 25.2618 22.2128 26.4975C22.4325 26.5349 22.6532 26.5668 22.8745 26.5932C19.4273 28.2278 16.9153 32.8704 16.7018 36.6956C16.6833 36.8804 16.6759 37.066 16.6796 37.2516C16.6796 37.4407 16.6796 37.6186 16.6907 37.8077C16.7108 38.1814 16.7591 38.5532 16.8352 38.9196H23.5406C24.3652 38.9141 25.1059 38.4144 25.4199 37.652C25.5226 37.4092 25.5755 37.1483 25.5755 36.8847V13.1547C25.5713 12.033 24.6634 11.1246 23.5417 11.1197Z" fill="black"/>
<path opacity="0.2" d="M23.5416 11.1197H11.3097C10.0743 18.3776 14.9565 25.2628 22.2144 26.4982C22.3628 26.5235 22.5117 26.5463 22.6609 26.5665C19.325 28.319 16.9119 32.9505 16.7029 36.6957H23.5416C24.662 36.6872 25.5681 35.7811 25.5766 34.6607V13.1547C25.5723 12.0326 24.6637 11.124 23.5416 11.1197Z" fill="black"/>
<path opacity="0.2" d="M22.4293 11.1197H11.3093C10.1428 17.9713 14.436 24.5694 21.1727 26.2785C18.6219 29.1929 17.0573 32.8389 16.7025 36.6957H22.4293C23.5514 36.6914 24.46 35.7828 24.4642 34.6607V13.1547C24.4636 12.0311 23.5529 11.1203 22.4293 11.1197Z" fill="black"/>
<path d="M2.03835 11.1197H22.4257C23.5514 11.1197 24.464 12.0323 24.464 13.158V33.5454C24.464 34.6711 23.5514 35.5837 22.4257 35.5837H2.03835C0.912635 35.5837 6.10352e-05 34.6711 6.10352e-05 33.5454V13.158C6.10352e-05 12.0323 0.912635 11.1197 2.03835 11.1197Z" fill="url(#paint0_linear_6732_579)"/>
<path d="M9.10396 23.1026C8.62629 22.7858 8.22729 22.364 7.93747 21.8694C7.65665 21.3524 7.51668 20.7707 7.53158 20.1825C7.50658 19.3862 7.7753 18.6085 8.28662 17.9974C8.82393 17.3857 9.51844 16.9327 10.2949 16.6875C11.1798 16.3962 12.1066 16.2527 13.0382 16.2627C14.2632 16.218 15.4865 16.3893 16.6522 16.7687V19.3263C16.1457 19.0195 15.5941 18.7943 15.0175 18.6591C14.392 18.5057 13.7501 18.4288 13.106 18.43C12.4268 18.4051 11.7519 18.5479 11.1411 18.8459C10.6695 19.0493 10.3637 19.5133 10.3627 20.0269C10.3608 20.3384 10.4805 20.6384 10.6963 20.8631C10.9512 21.128 11.2528 21.3436 11.5859 21.4992C11.9566 21.6837 12.5126 21.9291 13.2539 22.2353C13.3355 22.2611 13.4151 22.2931 13.4919 22.3309C14.2215 22.6161 14.9254 22.9632 15.5958 23.3684C16.1035 23.6815 16.5296 24.1106 16.839 24.6205C17.1562 25.1986 17.31 25.8521 17.2838 26.5109C17.32 27.3285 17.0699 28.1331 16.5766 28.7861C16.0849 29.3864 15.4274 29.8288 14.6862 30.0582C13.8143 30.3315 12.9043 30.4636 11.9907 30.4496C11.171 30.4533 10.3525 30.3864 9.54429 30.2495C8.86188 30.1378 8.19593 29.9421 7.56161 29.6668V26.9702C8.16794 27.4032 8.84534 27.7269 9.5632 27.9265C10.2786 28.1494 11.0224 28.2685 11.7716 28.2801C12.4651 28.324 13.1574 28.1771 13.7732 27.8553C14.2046 27.6119 14.467 27.1508 14.456 26.6555C14.4589 26.3109 14.3226 25.9797 14.0779 25.737C13.7737 25.4383 13.4215 25.1929 13.036 25.0109C12.5912 24.7884 11.9362 24.4953 11.0711 24.1313C10.3828 23.8546 9.72388 23.51 9.10396 23.1026Z" fill="white"/>
</g>
<defs>
<linearGradient id="paint0_linear_6732_579" x1="4.24994" y1="9.52705" x2="20.2141" y2="37.1763" gradientUnits="userSpaceOnUse">
<stop stop-color="#058F92"/>
<stop offset="0.5" stop-color="#038489"/>
<stop offset="1" stop-color="#026D71"/>
</linearGradient>
<clipPath id="clip0_6732_579">
<rect width="47.8159" height="46.7039" fill="white"/>
</clipPath>
</defs>
</svg>
