<svg width="48" height="48" viewBox="0 0 48 48" fill="none" xmlns="http://www.w3.org/2000/svg">
<g clip-path="url(#clip0_5402_11086)">
<path d="M10.2807 30.2365C10.2807 32.9955 8.05081 35.2254 5.29176 35.2254C2.53271 35.2254 0.302795 32.9955 0.302795 30.2365C0.302795 27.4774 2.53271 25.2475 5.29176 25.2475H10.2807V30.2365ZM12.7752 30.2365C12.7752 27.4774 15.0051 25.2475 17.7642 25.2475C20.5232 25.2475 22.7531 27.4774 22.7531 30.2365V42.7089C22.7531 45.4679 20.5232 47.6978 17.7642 47.6978C15.0051 47.6978 12.7752 45.4679 12.7752 42.7089V30.2365Z" fill="#E01E5A"/>
<path d="M17.7636 10.2047C15.0045 10.2047 12.7746 7.97474 12.7746 5.21569C12.7746 2.45665 15.0045 0.22673 17.7636 0.22673C20.5226 0.22673 22.7525 2.45665 22.7525 5.21569V10.2047H17.7636ZM17.7636 12.7369C20.5226 12.7369 22.7525 14.9669 22.7525 17.7259C22.7525 20.4849 20.5226 22.7149 17.7636 22.7149H5.25335C2.4943 22.7149 0.264389 20.4849 0.264389 17.7259C0.264389 14.9669 2.4943 12.7369 5.25335 12.7369H17.7636Z" fill="#36C5F0"/>
<path d="M37.7576 17.7259C37.7576 14.9669 39.9875 12.7369 42.7465 12.7369C45.5056 12.7369 47.7355 14.9669 47.7355 17.7259C47.7355 20.4849 45.5056 22.7149 42.7465 22.7149H37.7576V17.7259ZM35.2631 17.7259C35.2631 20.4849 33.0332 22.7149 30.2741 22.7149C27.5151 22.7149 25.2852 20.4849 25.2852 17.7259V5.21569C25.2852 2.45665 27.5151 0.22673 30.2741 0.22673C33.0332 0.22673 35.2631 2.45665 35.2631 5.21569V17.7259Z" fill="#2EB67D"/>
<path d="M30.2741 37.7199C33.0332 37.7199 35.2631 39.9498 35.2631 42.7089C35.2631 45.4679 33.0332 47.6978 30.2741 47.6978C27.5151 47.6978 25.2852 45.4679 25.2852 42.7089V37.7199H30.2741ZM30.2741 35.2254C27.5151 35.2254 25.2852 32.9955 25.2852 30.2365C25.2852 27.4774 27.5151 25.2475 30.2741 25.2475H42.7843C45.5434 25.2475 47.7733 27.4774 47.7733 30.2365C47.7733 32.9955 45.5434 35.2254 42.7843 35.2254H30.2741Z" fill="#ECB22E"/>
</g>
<defs>
<clipPath id="clip0_5402_11086">
<rect width="47.9999" height="47.9999" fill="white"/>
</clipPath>
</defs>
</svg>
