<svg width="465" height="88" viewBox="0 0 465 88" fill="none" xmlns="http://www.w3.org/2000/svg">
<g clip-path="url(#clip0_95_264)">
<path d="M44.8002 0.000230008H11.8002C10.2568 -0.00766689 8.72694 0.288844 7.29826 0.872797C5.86957 1.45675 4.57005 2.31668 3.47405 3.40339C2.37806 4.4901 1.50709 5.78226 0.911003 7.20592C0.314912 8.62959 0.00539215 10.1568 0.000153682 11.7002V44.8002C-0.00774322 46.3436 0.288768 47.8734 0.872721 49.3021C1.45667 50.7308 2.31661 52.0303 3.40332 53.1263C4.49003 54.2223 5.78218 55.0933 7.20585 55.6894C8.62951 56.2855 10.1567 56.595 11.7002 56.6002H44.7002C46.2436 56.6081 47.7734 56.3116 49.202 55.7277C50.6307 55.1437 51.9303 54.2838 53.0263 53.1971C54.1222 52.1104 54.9932 50.8182 55.5893 49.3945C56.1854 47.9709 56.4949 46.4436 56.5002 44.9002V11.9002C56.5363 10.3445 56.2599 8.79729 55.6872 7.35031C55.1146 5.90333 54.2574 4.586 53.1663 3.47633C52.0753 2.36667 50.7727 1.48724 49.3356 0.890151C47.8986 0.293059 46.3563 -0.0095566 44.8002 0.000230008ZM43.8002 31.5002C43.8087 31.6715 43.7513 31.8396 43.6397 31.9698C43.5281 32.1001 43.3708 32.1825 43.2002 32.2002H32.3002V43.2002C32.3002 43.6002 32.0002 43.8002 31.6002 43.8002H25.2002C25.0289 43.8088 24.8608 43.7514 24.7305 43.6398C24.6003 43.5282 24.5179 43.3708 24.5002 43.2002V32.2002H13.6002C13.2002 32.2002 13.0002 31.9002 13.0002 31.5002V25.1002C12.9916 24.9289 13.049 24.7608 13.1606 24.6306C13.2722 24.5004 13.4296 24.4179 13.6002 24.4002H24.5002V13.5002C24.5002 13.1002 24.8002 12.9002 25.2002 12.9002H31.6002C31.7715 12.8916 31.9395 12.9491 32.0698 13.0607C32.2 13.1723 32.2824 13.3296 32.3002 13.5002V24.4002H43.2002C43.6002 24.4002 43.8002 24.7002 43.8002 25.1002V31.5002Z" fill="#6599CA"/>
<path d="M464.2 56.7H411.1C406.874 56.6736 402.83 54.9762 399.851 51.9785C396.872 48.9808 395.2 44.9262 395.2 40.7V38.9C395.2 30.1 402.3 21.6 411.1 21.6L414 21.5H464.2V56.7ZM451.3 44.7V33.5H413.4C411.998 33.5105 410.656 34.0722 409.664 35.0639C408.672 36.0556 408.111 37.3976 408.1 38.8V39.5C408.107 40.1894 408.249 40.8709 408.519 41.5053C408.789 42.1398 409.181 42.7149 409.673 43.1977C410.165 43.6806 410.748 44.0618 411.387 44.3196C412.027 44.5773 412.711 44.7066 413.4 44.7H451.3Z" fill="#181715"/>
<path d="M364 56.7C365.351 56.6785 366.656 57.1921 367.63 58.1287C368.604 59.0653 369.169 60.349 369.2 61.7V62.3C369.2 63.6261 368.673 64.8979 367.736 65.8355C366.798 66.7732 365.526 67.3 364.2 67.3H312.2V78.8H367.4C376.1 78.8 383.3 71 383.3 62.2V60.3C383.407 56.7515 382.114 53.3032 379.7 50.7C380.81 49.2999 381.719 47.7516 382.4 46.1C386.1 38 382.4 22.9 369.9 21.5H367.4C367.4 21.5 326.5 21.6 326.4 21.5C316.8 21.5 309.2 30 309.2 38.7C309.2 47.4 314.6 56.7 324.6 56.7H364ZM348.3 33.5H364.3C364.992 33.4985 365.677 33.6353 366.315 33.9024C366.953 34.1695 367.532 34.5614 368.016 35.0552C368.5 35.549 368.881 36.1347 369.136 36.7777C369.391 37.4208 369.515 38.1084 369.5 38.8V39.4C369.501 40.7717 368.97 42.0903 368.019 43.0787C367.068 44.0671 365.771 44.6482 364.4 44.7H328.2C327.516 44.7053 326.837 44.5745 326.204 44.315C325.571 44.0556 324.995 43.6728 324.511 43.1888C324.027 42.7049 323.645 42.1295 323.385 41.4962C323.126 40.8629 322.995 40.1844 323 39.5V38.8C322.994 38.1106 323.123 37.4266 323.381 36.7871C323.638 36.1476 324.02 35.5651 324.502 35.073C324.985 34.5808 325.56 34.1886 326.195 33.9187C326.829 33.6488 327.511 33.5065 328.2 33.5H348.3Z" fill="#181715"/>
<path d="M69 21.5001V34.3001H112.8V56.7001H125.6V0.100098H112.8V21.5001H69Z" fill="#181715"/>
<path d="M210.9 56.7V39C210.9 30.2 202.6 21.5 193.2 21.5H152.7V0H139.9V56.7H152.5V34.6H191.7C194.6 34.6 198 36.9 198 39.8V56.7H210.9Z" fill="#181715"/>
<path d="M277.1 21.5H244.3V32.6H277.1V21.5Z" fill="#181715"/>
<path d="M274.9 43.9H280.6C281.926 43.9 283.198 43.3732 284.136 42.4355C285.073 41.4979 285.6 40.2261 285.6 38.9V21.5H298.5V40.8C298.5 44.9825 296.853 48.9967 293.914 51.9729C290.975 54.949 286.982 56.6474 282.8 56.7H238.8C234.612 56.6921 230.598 55.0249 227.636 52.0635C224.675 49.1022 223.008 45.088 223 40.9V21.5H235.8V38.7C235.773 39.3649 235.88 40.0285 236.113 40.6518C236.346 41.2751 236.701 41.8456 237.157 42.3299C237.613 42.8142 238.162 43.2026 238.77 43.4722C239.379 43.7418 240.035 43.8872 240.7 43.9H274.9Z" fill="#181715"/>
<path d="M3.0999 82.9999H0.699902C0.499902 82.9999 0.399902 82.9999 0.399902 82.6999V68.7999C0.399902 68.5999 0.399902 68.4999 0.699902 68.4999H2.8999C4.21571 68.4165 5.52938 68.6931 6.6999 69.2999C8.1999 70.2999 8.9999 72.4999 8.9999 75.4999C8.9999 80.5999 7.0999 82.9999 3.0999 82.9999ZM5.3999 70.3999C4.64423 70.0737 3.82051 69.9364 2.9999 69.9999H2.1999V81.4999H3.2999C4.9999 81.4999 5.5999 81.1999 6.2999 80.1999C6.9999 79.1999 7.1999 77.7999 7.1999 75.4999C7.1999 72.6999 6.5999 71.0999 5.3999 70.3999Z" fill="#6599CA"/>
<path d="M19.7 82.6001L18.8 83.2001C18.7 83.2001 18.7 83.3001 18.6 83.3001C18.5 83.3001 18 82.7001 17.8 82.0001C17.0077 82.8079 15.9312 83.2744 14.8 83.3001C14.4507 83.3259 14.0998 83.2811 13.7681 83.1684C13.4365 83.0557 13.1309 82.8774 12.8697 82.6441C12.6084 82.4108 12.3967 82.1273 12.2473 81.8105C12.0979 81.4937 12.0138 81.1501 12 80.8001V80.4001C12 78.0001 13.8 76.8001 17.6 76.7001V76.0001C17.6 74.6001 17.1 74.1001 15.7 74.1001C14.8306 74.0967 13.9732 74.3025 13.2 74.7001H13C12.9 74.7001 12.9 74.7001 12.9 74.6001L12.6 73.8001V73.6001C12.6 73.5001 12.7 73.4001 13.2 73.2001C14.0825 72.8109 15.0355 72.6067 16 72.6001C18.2 72.6001 19.3 73.6001 19.3 75.6001V79.6001C19.1977 80.5735 19.4078 81.5541 19.9 82.4001C19.8 82.4001 19.8 82.5001 19.7 82.6001ZM17.6 78.0001C15 78.0001 13.6 78.8001 13.6 80.2001C13.5636 80.6105 13.69 81.0187 13.9519 81.3367C14.2138 81.6548 14.5903 81.8571 15 81.9001H15.1C16.022 81.8145 16.8783 81.3863 17.5 80.7001L17.6 78.0001Z" fill="#6599CA"/>
<path d="M26.0999 83.3C25.016 83.296 23.9504 83.021 22.9999 82.5C22.8999 82.4 22.8999 82.4 22.8999 82.3V82.2L23.2999 81.3L23.3999 81.2H23.5999C24.3949 81.6599 25.2839 81.9335 26.1999 82C26.6108 82.039 27.0205 81.9136 27.3391 81.6512C27.6578 81.3888 27.8594 81.0108 27.8999 80.6V80.4C27.8999 79.7 27.4999 79.3 26.4999 78.8C25.6599 78.4451 24.8561 78.0097 24.0999 77.5C23.7955 77.2615 23.5478 76.9584 23.3749 76.6125C23.2019 76.2666 23.108 75.8866 23.0999 75.5C23.0999 74.7044 23.416 73.9413 23.9786 73.3787C24.5412 72.8161 25.3043 72.5 26.0999 72.5H26.2999C27.3999 72.5 28.9999 73 28.9999 73.4V73.6L28.5999 74.4C28.5999 74.5 28.4999 74.5 28.3999 74.5H28.1999C27.5691 74.1958 26.894 73.9933 26.1999 73.9C25.1999 73.9 24.5999 74.4 24.5999 75.3C24.6268 75.6666 24.7665 76.016 24.9999 76.3C25.2999 76.6 25.2999 76.6 27.1999 77.5C28.7999 78.3 29.2999 79 29.2999 80.2C29.3999 82.1 28.0999 83.3 26.0999 83.3Z" fill="#6599CA"/>
<path d="M46.1002 73.4999C45.6906 74.1188 45.5134 74.8628 45.6002 75.5999V78.8999C45.6002 80.4999 45.6002 80.4999 45.7002 82.4999V83.6999C45.7002 86.1999 44.4002 87.4999 41.9002 87.4999C40.7861 87.4837 39.6908 87.2099 38.7002 86.6999C38.4002 86.4999 38.3002 86.4999 38.3002 86.2999V86.1999L38.7002 85.2999C38.7002 85.2868 38.7028 85.2738 38.7078 85.2616C38.7128 85.2495 38.7202 85.2385 38.7295 85.2292C38.7388 85.2199 38.7498 85.2125 38.7619 85.2075C38.7741 85.2025 38.7871 85.1999 38.8002 85.1999C38.9002 85.1999 38.9002 85.1999 39.0002 85.2999C39.8664 85.7616 40.8208 86.0343 41.8002 86.0999C42.159 86.1422 42.5227 86.0907 42.8557 85.9505C43.1887 85.8103 43.4797 85.5861 43.7002 85.2999C43.9992 84.8238 44.1064 84.252 44.0002 83.6999V81.4999C43.173 82.2411 42.1104 82.6661 41.0002 82.6999C39.0002 82.6999 37.7002 80.8999 37.7002 77.9999C37.7002 74.4999 39.1002 72.4999 41.7002 72.4999C42.6418 72.5085 43.5548 72.8246 44.3002 73.3999C44.5002 72.7999 44.8002 72.3999 44.9002 72.3999H45.1002L46.1002 72.9999L46.2002 73.0999C46.2044 73.2399 46.1697 73.3783 46.1002 73.4999ZM44.0002 74.4999C43.3806 74.1824 42.6963 74.0114 42.0002 73.9999C40.4002 73.9999 39.6002 75.2999 39.6002 77.6999C39.6002 80.2999 40.1002 81.3999 41.5002 81.3999C42.4241 81.3655 43.3075 81.0121 44.0002 80.3999V74.4999Z" fill="#6599CA"/>
<path d="M54.8998 73L54.3998 74.2L54.2998 74.3L53.9998 74.2H53.5998C53.0998 74.2 52.5998 74.6 51.4998 75.8V82.8C51.4998 83 51.4998 83 51.2998 83H50.0998C49.8998 83 49.8998 83 49.8998 82.8V76.4C50.0218 75.4375 49.8473 74.4608 49.3998 73.6C49.3998 73.5 49.2998 73.5 49.2998 73.4C49.2998 73.3 49.2998 73.2 49.3998 73.2L50.2998 72.6C50.3537 72.5457 50.424 72.5106 50.4998 72.5C50.6998 72.5 51.1998 73.4 51.2998 74.3C52.5998 72.8 52.9998 72.5 53.8998 72.5C54.3998 72.6 54.9998 72.8 54.8998 73C54.9998 73 54.9998 72.9 54.8998 73Z" fill="#6599CA"/>
<path d="M60.8002 83.3001C58.2002 83.3001 56.7002 81.3001 56.7002 78.0001C56.7002 74.7001 58.3002 72.6001 61.0002 72.6001C63.7002 72.6001 65.1002 74.6001 65.1002 77.9001C65.1002 81.2001 63.5002 83.3001 60.8002 83.3001ZM60.9002 73.9001C59.3002 73.9001 58.4002 75.3001 58.4002 77.8001C58.3322 78.9431 58.5741 80.0832 59.1002 81.1001C59.3021 81.4117 59.5868 81.6609 59.9224 81.8199C60.258 81.9788 60.6312 82.0412 61.0002 82.0001C61.351 82.0092 61.6987 81.9318 62.0126 81.7749C62.3265 81.6179 62.597 81.3862 62.8002 81.1001C63.2794 80.1025 63.5191 79.0067 63.5002 77.9001C63.4002 75.3001 62.6002 73.9001 60.9002 73.9001Z" fill="#6599CA"/>
<path d="M76.8002 82.5001C76.0904 83.0592 75.2027 83.3433 74.3002 83.3001C73.1002 83.3001 71.8002 82.9001 71.8002 82.6001V82.5001L72.0002 81.6001C72.0002 81.5001 72.1002 81.5001 72.2002 81.4001C72.3002 81.3001 72.3002 81.4001 72.4002 81.5001C73.0362 81.7716 73.7113 81.9404 74.4002 82.0001C74.6108 82.0295 74.8251 82.0163 75.0305 81.9614C75.2359 81.9065 75.4282 81.8109 75.596 81.6804C75.7638 81.5499 75.9037 81.387 76.0075 81.2015C76.1113 81.0159 76.1768 80.8114 76.2002 80.6001V80.2001C76.2002 79.2001 76.0002 78.9001 73.9002 77.4001C73.423 77.0886 72.9864 76.7191 72.6002 76.3001C72.2445 75.8843 72.0651 75.3461 72.1002 74.8001C72.0929 74.3719 72.1891 73.9483 72.3806 73.5653C72.5721 73.1823 72.8533 72.8512 73.2002 72.6001C74.1002 71.8001 74.3002 71.4001 74.3002 70.7001C74.2925 70.4529 74.2331 70.2101 74.1259 69.9872C74.0186 69.7644 73.8658 69.5665 73.6774 69.4063C73.4889 69.2462 73.269 69.1273 73.0318 69.0573C72.7946 68.9873 72.5454 68.9678 72.3002 69.0001C71.6991 69.0121 71.1121 69.1848 70.6002 69.5001C70.1002 69.9001 70.0002 70.4001 70.0002 71.6001V82.8001C70.0002 83.0001 70.0002 83.0001 69.8002 83.0001H68.7002C68.5002 83.0001 68.5002 83.0001 68.5002 82.8001V71.5001C68.4056 70.4994 68.6912 69.4998 69.3002 68.7001C69.7281 68.3048 70.2336 68.0029 70.7845 67.8136C71.3354 67.6242 71.9197 67.5515 72.5002 67.6001C74.7002 67.6001 76.0002 68.6001 76.0002 70.3001C76.0002 70.9492 75.7897 71.5808 75.4002 72.1001C75.0852 72.5151 74.7152 72.8851 74.3002 73.2001C73.8002 73.7001 73.6002 74.0001 73.6002 74.4001C73.6002 74.8001 73.6002 74.9001 75.8002 76.6001C77.2002 77.7001 77.8002 78.6001 77.8002 79.8001C77.8361 80.7968 77.4767 81.7673 76.8002 82.5001Z" fill="#6599CA"/>
<path d="M88.4001 78.3002H82.3001C82.4001 80.6002 83.4001 81.9002 85.1001 81.9002C85.9932 81.8803 86.8614 81.6024 87.6001 81.1002C87.7001 81.1002 87.7001 81.0002 87.8001 81.0002C87.9001 81.0002 87.9001 81.1002 88.0001 81.1002L88.4001 81.9002V82.0002C88.1848 82.2608 87.9106 82.4665 87.6001 82.6002C86.7915 82.9985 85.9015 83.2039 85.0001 83.2002C82.3001 83.2002 80.6001 81.1002 80.6001 77.8002C80.6001 74.5002 82.2001 72.4002 84.8001 72.4002C85.5896 72.3726 86.3668 72.6011 87.0157 73.0517C87.6646 73.5023 88.1502 74.1508 88.4001 74.9002C88.6967 75.8019 88.799 76.7561 88.7001 77.7002C88.6001 78.2002 88.6001 78.3002 88.4001 78.3002ZM84.7001 73.9002C83.3001 73.9002 82.5001 75.0002 82.4001 77.0002H87.0001C86.9001 75.0002 86.1001 73.9002 84.7001 73.9002Z" fill="#6599CA"/>
<path d="M103.2 76.4001C102.419 76.7662 101.561 76.9377 100.7 76.9001H99.2V82.8001C99.2 83.0001 99.2 83.1001 98.9 83.1001H97.8C97.6 83.1001 97.5 83.1001 97.5 82.8001V68.8001C97.5 68.6001 97.5 68.5001 97.8 68.5001H101.1C102.029 68.4115 102.964 68.5847 103.8 69.0001C104.334 69.3843 104.76 69.898 105.04 70.4929C105.32 71.0878 105.444 71.7441 105.4 72.4001C105.412 73.2005 105.216 73.9902 104.83 74.6915C104.444 75.3929 103.882 75.9818 103.2 76.4001ZM102.3 70.1001C101.818 69.9359 101.308 69.8679 100.8 69.9001H99.1V75.3001H100.5C101.206 75.3859 101.918 75.2079 102.5 74.8001C102.845 74.49 103.107 74.0994 103.264 73.6632C103.421 73.227 103.468 72.7587 103.4 72.3001C103.499 71.8628 103.444 71.4046 103.243 71.0035C103.043 70.6024 102.709 70.2832 102.3 70.1001Z" fill="#6599CA"/>
<path d="M110.7 83.1998C110.215 83.2506 109.728 83.1277 109.325 82.853C108.922 82.5784 108.63 82.1697 108.5 81.6998C108.317 80.8454 108.283 79.9658 108.4 79.0998V68.1998C108.405 68.1483 108.427 68.1 108.464 68.0634C108.5 68.0268 108.548 68.0043 108.6 67.9998L109.7 67.7998H109.9C110 67.7998 110 67.7998 110 67.9998V81.0998C110.002 81.2129 110.028 81.3243 110.075 81.427C110.122 81.5297 110.191 81.6215 110.275 81.6966C110.36 81.7717 110.459 81.8286 110.566 81.8635C110.674 81.8985 110.787 81.9109 110.9 81.8998C111.241 81.8816 111.578 81.8142 111.9 81.6998H112.1C112.2 81.6998 112.2 81.7998 112.3 81.8998L112.5 82.6998V82.8998C111.91 83.0513 111.308 83.1517 110.7 83.1998Z" fill="#6599CA"/>
<path d="M122.7 82.7002L121.7 83.3002C121.646 83.3545 121.576 83.3896 121.5 83.4002C121.3 83.4002 121 82.8002 120.8 82.1002C119.931 82.914 118.791 83.3771 117.6 83.4002C116.924 83.4914 116.24 83.3111 115.696 82.8988C115.153 82.4865 114.795 81.8758 114.7 81.2002V73.3002C114.7 73.2002 114.8 73.0002 114.9 73.0002L116 72.7002H116.1C116.152 72.7047 116.2 72.7272 116.237 72.7638C116.273 72.8004 116.296 72.8487 116.3 72.9002V79.5002C116.3 81.4002 116.7 82.0002 117.8 82.0002C118.807 81.9863 119.771 81.5935 120.5 80.9002V73.3002C120.5 73.2002 120.6 73.0002 120.7 73.0002L121.8 72.7002H121.9C121.952 72.7047 122 72.7272 122.037 72.7638C122.073 72.8004 122.096 72.8487 122.1 72.9002V80.3002C122.003 81.0839 122.218 81.8744 122.7 82.5002L122.8 82.6002C122.7 82.6002 122.7 82.6002 122.7 82.7002Z" fill="#6599CA"/>
<path d="M128.8 83.2999C127.716 83.2959 126.651 83.0209 125.7 82.4999C125.6 82.3999 125.6 82.3999 125.6 82.2999V82.1999L126 81.2999L126.1 81.1999H126.3C127.102 81.6292 127.991 81.8687 128.9 81.8999C129.311 81.9389 129.721 81.8135 130.039 81.5511C130.358 81.2887 130.56 80.9107 130.6 80.4999V80.2999C130.6 79.5999 130.2 79.1999 129.2 78.6999C128.36 78.345 127.556 77.9096 126.8 77.3999C126.496 77.1614 126.248 76.8583 126.075 76.5124C125.902 76.1665 125.808 75.7865 125.8 75.3999C125.8 74.6043 126.116 73.8412 126.679 73.2786C127.241 72.716 128.004 72.3999 128.8 72.3999H129C130.1 72.3999 131.7 72.8999 131.7 73.2999V73.3999L131.3 74.1999C131.3 74.2999 131.2 74.2999 131.1 74.2999H130.9C130.269 73.9957 129.594 73.7932 128.9 73.6999C127.9 73.6999 127.3 74.1999 127.3 75.0999C127.327 75.4665 127.467 75.8159 127.7 76.0999C128 76.3999 128 76.3999 129.9 77.2999C131.5 78.0999 132 78.7999 132 79.9999C132.2 82.0999 130.9 83.2999 128.8 83.2999Z" fill="#6599CA"/>
<path d="M148.9 82.6998L147.9 83.1998C147.846 83.2541 147.776 83.2892 147.7 83.2998C147.5 83.2998 147.2 82.6998 147 81.9998C146.115 82.803 144.991 83.2947 143.8 83.3998C141.7 83.3998 140.5 81.2998 140.5 77.8998C140.5 74.4998 141.9 72.5998 144.3 72.5998C145.121 72.5844 145.926 72.8295 146.6 73.2998V68.2998C146.6 68.1998 146.7 68.0998 146.8 67.9998L147.9 67.7998H148C148.1 67.7998 148.1 67.8998 148.1 67.9998V79.6998C148.013 80.5644 148.187 81.4353 148.6 82.1998L148.8 82.4998C148.8 82.4998 149 82.5998 148.9 82.6998ZM146.7 74.6998C146.049 74.2606 145.285 74.0176 144.5 73.9998C142.9 73.9998 142.3 75.0998 142.3 77.7998C142.3 80.6998 142.9 81.8998 144.3 81.8998C145.222 81.8142 146.078 81.386 146.7 80.6998V74.6998Z" fill="#6599CA"/>
<path d="M159.4 78.3002H153.3C153.4 80.6002 154.4 81.9002 156.1 81.9002C156.993 81.8803 157.861 81.6024 158.6 81.1002C158.7 81.1002 158.7 81.0002 158.8 81.0002C158.827 81.0002 158.852 81.0107 158.871 81.0295C158.889 81.0482 158.9 81.0737 158.9 81.1002L159.3 81.9002V82.0002C159.085 82.2608 158.811 82.4665 158.5 82.6002C157.691 82.9985 156.801 83.2039 155.9 83.2002C153.2 83.2002 151.5 81.1002 151.5 77.8002C151.5 74.5002 153.1 72.4002 155.7 72.4002C156.489 72.3726 157.267 72.6011 157.916 73.0517C158.564 73.5023 159.05 74.1508 159.3 74.9002C159.597 75.8019 159.699 76.7561 159.6 77.7002C159.7 78.2002 159.6 78.3002 159.4 78.3002ZM155.7 73.9002C154.3 73.9002 153.5 75.0002 153.4 77.0002H158C157.9 75.0002 157.1 73.9002 155.7 73.9002Z" fill="#6599CA"/>
<path d="M168.4 73.0001L167.9 74.2001L167.8 74.3001L167.4 74.2001H167C166.4 74.2001 166 74.6001 164.9 75.8001V82.8001C164.9 83.0001 164.9 83.0001 164.7 83.0001H163.6C163.4 83.0001 163.4 83.0001 163.4 82.8001V76.5001C163.522 75.5376 163.347 74.5609 162.9 73.7001C162.9 73.6001 162.8 73.6001 162.8 73.5001C162.8 73.4001 162.8 73.3001 162.9 73.3001L163.8 72.7001C163.854 72.6458 163.924 72.6107 164 72.6001C164.2 72.6001 164.7 73.5001 164.8 74.4001C166.1 72.9001 166.5 72.6001 167.4 72.6001C167.9 72.6001 168.5 72.8001 168.4 73.0001Z" fill="#6599CA"/>
<path d="M184.6 82.5002C183.537 83.1045 182.32 83.3828 181.1 83.3002C177.8 83.3002 176 80.7002 176 75.8002C176 70.9002 177.8 68.2002 181.2 68.2002C182.297 68.2041 183.371 68.5159 184.3 69.1002C184.6 69.3002 184.7 69.4002 184.7 69.5002C184.7 69.6002 184.7 69.6002 184.6 69.7002L184.2 70.6002L184.1 70.7002C184 70.7002 184 70.7002 183.4 70.3002C182.729 69.9047 181.977 69.6654 181.2 69.6002C178.9 69.6002 177.9 71.4002 177.9 75.6002C177.9 80.0002 178.9 81.9002 181.4 81.9002C181.992 81.9224 182.58 81.7842 183.1 81.5002V77.1002H181.5C181.3 77.1002 181.2 77.1002 181.2 76.8002V76.0002C181.2 75.8002 181.2 75.7002 181.5 75.7002H184.6C184.8 75.7002 184.9 75.7002 184.9 76.0002V82.2002L184.6 82.5002Z" fill="#6599CA"/>
<path d="M195.9 78.3002H189.8C189.9 80.6002 190.9 81.9002 192.6 81.9002C193.493 81.8803 194.361 81.6024 195.1 81.1002C195.2 81.1002 195.2 81.0002 195.3 81.0002C195.327 81.0002 195.352 81.0107 195.371 81.0295C195.389 81.0482 195.4 81.0737 195.4 81.1002L195.8 81.9002V82.0002C195.585 82.2608 195.311 82.4665 195 82.6002C194.191 82.9985 193.301 83.2039 192.4 83.2002C189.7 83.2002 188 81.1002 188 77.8002C188 74.5002 189.6 72.4002 192.2 72.4002C192.989 72.3726 193.767 72.6011 194.416 73.0517C195.064 73.5023 195.55 74.1508 195.8 74.9002C196.097 75.8019 196.199 76.7561 196.1 77.7002C196.2 78.2002 196.1 78.3002 195.9 78.3002ZM192.2 73.9002C190.8 73.9002 190 75.0002 189.9 77.0002H194.5C194.4 75.0002 193.6 73.9002 192.2 73.9002Z" fill="#6599CA"/>
<path d="M211.3 82.9998H210.2C210 82.9998 210 82.9998 210 82.7998V75.4998C210 74.3998 209.6 73.8998 208.6 73.8998C207.796 73.9053 207.019 74.1878 206.4 74.6998V82.6998C206.4 82.8998 206.4 82.8998 206.2 82.8998H205.1C204.9 82.8998 204.9 82.8998 204.9 82.6998V75.3998C204.9 74.3998 204.5 73.7998 203.5 73.7998C202.716 73.8428 201.972 74.1616 201.4 74.6998V82.5998C201.4 82.7998 201.4 82.7998 201.2 82.7998H200C199.8 82.7998 199.8 82.7998 199.8 82.5998V74.9998C199.812 74.3766 199.674 73.7595 199.4 73.1998C199.4 73.0998 199.4 72.9998 199.5 72.9998L200.4 72.4998C200.5 72.4998 200.5 72.3998 200.6 72.3998C200.7 72.3998 201 72.8998 201.2 73.5998C202.002 72.8186 203.081 72.3871 204.2 72.3998C204.62 72.3455 205.046 72.4344 205.408 72.6522C205.771 72.87 206.05 73.2039 206.2 73.5998C207.075 72.8727 208.163 72.4513 209.3 72.3998C209.667 72.3794 210.033 72.451 210.364 72.6082C210.696 72.7654 210.983 73.0032 211.2 73.2998C211.486 73.9621 211.622 74.679 211.6 75.3998V82.5998C211.5 82.9998 211.5 82.9998 211.3 82.9998Z" fill="#6599CA"/>
<path d="M222.9 78.3002H216.8C216.9 80.6002 217.9 81.9002 219.6 81.9002C220.493 81.8803 221.361 81.6024 222.1 81.1002C222.2 81.1002 222.2 81.0002 222.3 81.0002C222.327 81.0002 222.352 81.0107 222.371 81.0295C222.389 81.0482 222.4 81.0737 222.4 81.1002L222.8 81.9002V82.0002C222.585 82.2608 222.311 82.4665 222 82.6002C221.191 82.9985 220.301 83.2039 219.4 83.2002C216.7 83.2002 215 81.1002 215 77.8002C215 74.5002 216.6 72.4002 219.2 72.4002C219.989 72.3726 220.767 72.6011 221.416 73.0517C222.064 73.5023 222.55 74.1508 222.8 74.9002C223.097 75.8019 223.199 76.7561 223.1 77.7002C223.1 78.2002 223.1 78.3002 222.9 78.3002ZM219.2 73.9002C217.8 73.9002 217 75.0002 216.9 77.0002H221.5C221.4 75.0002 220.6 73.9002 219.2 73.9002Z" fill="#6599CA"/>
<path d="M228.4 82.9998H227.3C227.1 82.9998 227.1 82.9998 227.1 82.7998V74.1998H225.4C225.2 74.1998 225.2 74.1998 225.2 73.9998V73.1998C225.2 72.9998 225.2 72.9998 225.4 72.9998H228.5C228.7 72.9998 228.7 72.9998 228.7 73.1998V82.8998C228.7 82.9998 228.6 82.9998 228.4 82.9998ZM227.7 70.3998C227.355 70.3998 227.025 70.2628 226.781 70.019C226.537 69.7752 226.4 69.4446 226.4 69.0998C226.4 68.755 226.537 68.4244 226.781 68.1806C227.025 67.9368 227.355 67.7998 227.7 67.7998C227.871 67.7998 228.04 67.8334 228.198 67.8988C228.355 67.9641 228.499 68.0598 228.619 68.1806C228.74 68.3013 228.836 68.4446 228.901 68.6023C228.967 68.76 229 68.9291 229 69.0998C229 69.2705 228.967 69.4396 228.901 69.5973C228.836 69.755 228.74 69.8983 228.619 70.019C228.499 70.1398 228.355 70.2355 228.198 70.3008C228.04 70.3662 227.871 70.3998 227.7 70.3998Z" fill="#6599CA"/>
<path d="M240.6 82.9999H239.5C239.3 82.9999 239.3 82.9999 239.3 82.7999V75.6999C239.3 74.4999 238.9 73.8999 237.9 73.8999C237.368 73.9036 236.842 74.0215 236.359 74.2458C235.876 74.4701 235.447 74.7954 235.1 75.1999V82.6999C235.1 82.8999 235.1 82.8999 234.9 82.8999H233.8C233.6 82.8999 233.6 82.8999 233.6 82.6999V75.3999C233.622 74.7114 233.486 74.027 233.2 73.3999V73.2999C233.2 73.2734 233.211 73.248 233.229 73.2292C233.248 73.2105 233.274 73.1999 233.3 73.1999L234.3 72.5999C234.4 72.5999 234.4 72.4999 234.5 72.4999C234.6 72.4999 235 73.0999 235.2 73.8999C235.646 73.4528 236.176 73.0987 236.76 72.8584C237.343 72.618 237.969 72.4962 238.6 72.4999C239.022 72.4612 239.447 72.5331 239.833 72.7085C240.218 72.8838 240.552 73.1566 240.8 73.4999C241.122 74.1507 241.26 74.8766 241.2 75.5999V82.6999C240.8 82.9999 240.8 82.9999 240.6 82.9999Z" fill="#6599CA"/>
<path d="M247.7 83.2998C246.616 83.2958 245.55 83.0208 244.6 82.4998C244.5 82.3998 244.5 82.3998 244.5 82.2998V82.1998L244.9 81.2998L245 81.1998H245.2C246.002 81.6291 246.891 81.8686 247.8 81.8998C248.211 81.9389 248.621 81.8134 248.939 81.551C249.258 81.2886 249.46 80.9106 249.5 80.4998V80.2998C249.5 79.5998 249.1 79.1998 248.1 78.6998C247.26 78.3449 246.456 77.9095 245.7 77.3998C245.396 77.1614 245.148 76.8582 244.975 76.5123C244.802 76.1665 244.708 75.7865 244.7 75.3998C244.698 75.0011 244.778 74.6062 244.935 74.24C245.093 73.8738 245.324 73.5441 245.616 73.2717C245.907 72.9993 246.251 72.7901 246.627 72.6573C247.003 72.5245 247.402 72.4709 247.8 72.4998H248.1C249.2 72.4998 250.8 72.9998 250.8 73.3998V73.5998L250.4 74.3998C250.4 74.4998 250.3 74.4998 250.2 74.4998H250C249.369 74.1956 248.694 73.9931 248 73.8998C247 73.8998 246.4 74.3998 246.4 75.2998C246.427 75.6665 246.567 76.0158 246.8 76.2998C247.1 76.5998 247.1 76.5998 249 77.4998C250.6 78.2998 251.1 78.9998 251.1 80.1998C251.105 80.6344 251.018 81.0651 250.845 81.4637C250.672 81.8623 250.417 82.2197 250.095 82.5125C249.774 82.8053 249.395 83.0268 248.982 83.1625C248.569 83.2982 248.132 83.345 247.7 83.2998Z" fill="#6599CA"/>
<path d="M261.5 74L261 74.8C260.9 74.9 260.9 75 260.8 75C260.7 75 260.7 75 260.6 74.9C260.025 74.2928 259.236 73.934 258.4 73.9C256.7 73.9 255.8 75.2 255.8 77.8C255.8 80.4 256.6 81.8 258.2 81.8C259.124 81.7656 260.007 81.4122 260.7 80.8L260.8 80.7C260.9 80.7 260.9 80.7 260.9 80.8L261.2 81.6C261.2 81.7 261.2 81.7 261.3 81.8C261.4 81.9 261.2 82 261 82.2C260.122 82.8258 259.077 83.1741 258 83.2C255.5 83.2 254 81.3 254 78.1C254 74.6 255.6 72.5 258.3 72.5C259.224 72.5213 260.124 72.7982 260.9 73.3C261.3 73.6 261.5 73.8 261.5 74Z" fill="#6599CA"/>
<path d="M271.9 83.0002H270.8C270.6 83.0002 270.6 83.0002 270.6 82.8002V75.8002C270.6 74.5002 270.2 74.0002 269.1 74.0002C268.044 74.0973 267.055 74.5566 266.3 75.3002V82.8002C266.3 83.0002 266.3 83.0002 266.1 83.0002H265C264.8 83.0002 264.8 83.0002 264.8 82.8002V68.2002C264.8 68.1002 264.9 67.9002 265 67.9002L266.1 67.7002H266.2C266.254 67.7541 266.289 67.8244 266.3 67.9002V73.9002C266.72 73.4468 267.231 73.0876 267.8 72.8463C268.368 72.6049 268.982 72.487 269.6 72.5002C269.972 72.4716 270.346 72.5289 270.693 72.6675C271.04 72.8062 271.35 73.0227 271.6 73.3002C272.068 74.0067 272.246 74.8657 272.1 75.7002V82.7002C272.1 83.0002 272.1 83.0002 271.9 83.0002Z" fill="#6599CA"/>
<path d="M283.5 82.6001L282.6 83.2001C282.5 83.2001 282.5 83.3001 282.4 83.3001C282.3 83.3001 281.8 82.7001 281.6 82.0001C280.808 82.8079 279.731 83.2744 278.6 83.3001C278.251 83.3259 277.9 83.2811 277.568 83.1684C277.236 83.0557 276.931 82.8774 276.669 82.6441C276.408 82.4108 276.197 82.1273 276.047 81.8105C275.898 81.4937 275.814 81.1501 275.8 80.8001V80.4001C275.8 78.0001 277.6 76.8001 281.4 76.7001V76.0001C281.4 74.6001 280.9 74.1001 279.4 74.1001C278.53 74.0967 277.673 74.3025 276.9 74.7001H276.8C276.7 74.7001 276.7 74.7001 276.7 74.6001L276.4 73.8001V73.6001C276.4 73.5001 276.5 73.4001 277 73.2001C277.882 72.8109 278.835 72.6067 279.8 72.6001C282 72.6001 283.1 73.6001 283.1 75.6001V79.6001C282.998 80.5735 283.208 81.5541 283.7 82.4001C283.6 82.4001 283.6 82.5001 283.5 82.6001ZM281.4 78.0001C278.8 78.0001 277.4 78.8001 277.4 80.2001C277.363 80.6105 277.49 81.0187 277.752 81.3367C278.014 81.6548 278.39 81.8571 278.8 81.9001H278.9C279.822 81.8145 280.678 81.3863 281.3 80.7001L281.4 78.0001Z" fill="#6599CA"/>
<path d="M293.2 68.5998L292.8 69.4998C292.8 69.5263 292.789 69.5518 292.771 69.5705C292.752 69.5893 292.726 69.5998 292.7 69.5998C292.6 69.5998 292.6 69.5998 292.5 69.4998C292.011 69.2276 291.459 69.0896 290.9 69.0998C290.713 69.0806 290.525 69.107 290.351 69.1767C290.177 69.2464 290.022 69.3572 289.9 69.4998C289.623 70.0565 289.518 70.6833 289.6 71.2998V72.8998H292.6C292.8 72.8998 292.8 72.8998 292.8 73.0998V73.1998L292.5 74.0998C292.5 74.1998 292.3 74.2998 292.2 74.2998H289.5V82.8998C289.5 83.0998 289.5 83.0998 289.3 83.0998H288.2C288 83.0998 288 83.0998 288 82.8998V74.2998H286.6C286.4 74.2998 286.4 74.2998 286.4 74.0998V73.2998C286.4 73.0998 286.4 73.0998 286.6 73.0998H288V71.3998C287.913 70.5352 288.087 69.6643 288.5 68.8998C288.798 68.5558 289.167 68.2796 289.581 68.0899C289.995 67.9001 290.445 67.8012 290.9 67.7998C291.9 67.7998 293.2 68.1998 293.2 68.4998V68.5998Z" fill="#6599CA"/>
<path d="M299.2 83.1999C298.743 83.2329 298.286 83.1381 297.88 82.9262C297.473 82.7142 297.134 82.3935 296.9 81.9999C296.607 81.4125 296.502 80.749 296.6 80.0999V74.0999H295.1C294.9 74.0999 294.9 74.0999 294.9 73.8999V73.0999C294.9 72.8999 294.9 72.8999 295.1 72.8999H296.6V69.9999C296.6 69.8999 296.7 69.7999 296.8 69.6999L297.9 69.3999H298C298.1 69.3999 298.1 69.3999 298.1 69.5999V72.8999H301.3C301.4 72.8999 301.5 72.8999 301.5 72.9999V73.0999L301.3 73.8999C301.3 73.9999 301.1 74.0999 301 74.0999H298.2V80.0999C298.2 80.9999 298.2 81.0999 298.4 81.3999C298.533 81.5557 298.705 81.6744 298.897 81.7445C299.09 81.8146 299.298 81.8337 299.5 81.7999C300.164 81.7881 300.816 81.6166 301.4 81.2999H301.5C301.526 81.2999 301.552 81.3104 301.571 81.3292C301.589 81.3479 301.6 81.3734 301.6 81.3999L301.8 82.2999V82.3999C301.9 82.6999 300.2 83.1999 299.2 83.1999Z" fill="#6599CA"/>
</g>
<defs>
<clipPath id="clip0_95_264">
<rect width="464.2" height="87.5" fill="white"/>
</clipPath>
</defs>
</svg>
