<svg width="1024" height="221" viewBox="0 0 1024 221" fill="none" xmlns="http://www.w3.org/2000/svg">
<path d="M284.886 212.516C281.261 213.804 277.443 214.466 273.596 214.474C262.876 214.474 256.567 208.02 256.567 197.556C256.567 186.939 262.868 179.259 275.001 179.259C277.955 179.294 280.893 179.703 283.745 180.476V185.048C280.815 183.894 277.698 183.291 274.549 183.269C265.303 183.269 261.548 189.774 261.548 196.892C261.548 205.406 266.273 210.413 274.251 210.413C276.302 210.42 278.341 210.11 280.297 209.493V196.534H284.92V212.516H284.886ZM323.039 214.04L312.677 199.182H310.208V214.015H305.533V179.778C305.533 179.778 310.055 179.523 314.482 179.523C321.651 179.523 326.53 182.324 326.53 188.888C326.53 194.849 322.409 197.88 317.539 198.586C317.539 198.586 319.012 200.366 320.34 202.248L328.855 214.032L323.039 214.04ZM310.208 195.632C310.208 195.632 312.141 195.683 313.861 195.683C318.842 195.683 321.634 193.35 321.634 189.433C321.634 185.517 318.986 183.337 314.065 183.337C312.183 183.337 310.208 183.439 310.208 183.439V195.632ZM359.234 214.534C349.281 214.534 343.84 207.876 343.84 197.36C343.84 185.627 351.316 179.233 360.145 179.233C370.098 179.233 375.539 185.891 375.539 196.407C375.505 208.131 368.038 214.534 359.209 214.534H359.234ZM359.685 183.337C353.538 183.337 348.761 188.011 348.761 196.645C348.761 204.879 352.414 210.421 359.685 210.421C365.833 210.421 370.609 205.747 370.609 197.113C370.584 188.88 366.931 183.337 359.66 183.337H359.685ZM420.691 200.911C420.691 209.902 415.966 214.534 407.068 214.534C396.349 214.534 394.22 208.574 394.22 202.503V179.735H398.894V202.137C398.894 206.862 400.47 210.651 407.409 210.651C413.369 210.651 416.204 208.157 416.204 201.285V179.735H420.776V200.911H420.691ZM442.369 214.015V179.727C442.369 179.727 447.248 179.523 451.36 179.523C460.309 179.523 464.362 184.299 464.362 190.191C464.362 197.096 459.185 202.273 450.645 202.273C448.866 202.273 447.044 202.12 447.044 202.12V214.04H442.369V214.015ZM447.044 198.169C448.355 198.36 449.678 198.462 451.003 198.476C456.699 198.476 459.517 195.181 459.517 190.855C459.517 186.53 456.827 183.337 450.773 183.337C448.993 183.337 447.018 183.439 447.018 183.439V198.161L447.044 198.169ZM520.447 184.044C518.427 183.481 516.344 183.172 514.248 183.124C509.676 183.124 507.292 185.057 507.292 188.233C507.292 195.751 523.095 193.112 523.095 204.41C523.095 210.158 518.778 214.415 510.749 214.415C508.147 214.423 505.553 214.114 503.026 213.495V208.923C505.578 209.879 508.279 210.378 511.004 210.396C515.176 210.396 518.224 208.77 518.224 204.751C518.224 196.824 502.524 199.642 502.524 188.573C502.524 183.09 506.943 179.208 514.555 179.208C516.534 179.211 518.509 179.396 520.455 179.761V184.018L520.447 184.044ZM541.273 214.015V179.727H560.677V183.567H545.947V194.44H559.468V198.195H545.93V210.115H560.873V214.023H541.29L541.273 214.015ZM598.473 214.015L588.102 199.182H585.608V214.015H580.933V179.778C580.933 179.778 585.454 179.523 589.882 179.523C597.051 179.523 601.93 182.324 601.93 188.888C601.93 194.849 597.809 197.88 592.939 198.586C592.939 198.586 594.411 200.366 595.74 202.248L604.254 214.032L598.473 214.015ZM585.625 195.632C585.625 195.632 587.557 195.683 589.277 195.683C594.258 195.683 597.051 193.35 597.051 189.433C597.051 185.517 594.403 183.337 589.482 183.337C587.6 183.337 585.625 183.439 585.625 183.439V195.632ZM635.094 214.015H629.397L617.154 179.727H622.382L630.044 202.026C630.802 204.155 631.671 207.058 632.326 209.493H632.386C633.042 207.16 633.91 204.317 634.761 201.83L642.484 179.735H647.38L635.094 214.015ZM663.191 214.015V179.727H667.866V214.015H663.191ZM710.591 213.061C707.572 213.955 704.442 214.417 701.293 214.432C690.574 214.432 685.967 207.527 685.967 197.675C685.967 187.254 691.204 179.429 702.477 179.429C705.096 179.422 707.701 179.819 710.199 180.604V185.227C707.571 184.084 704.739 183.479 701.872 183.448C694.252 183.448 690.999 189.544 690.999 197.164C690.999 205.492 694.703 210.268 702.179 210.268C705.038 210.202 707.875 209.741 710.608 208.897V213.069L710.591 213.061ZM728.974 214.015V179.727H748.378V183.567H733.648V194.44H747.169V198.195H733.657V210.115H748.591V214.023H729.008L728.974 214.015ZM784.599 184.044C782.579 183.48 780.497 183.171 778.4 183.124C773.828 183.124 771.444 185.057 771.444 188.233C771.444 195.751 787.238 193.112 787.238 204.41C787.238 210.158 782.921 214.415 774.892 214.415C772.29 214.423 769.697 214.114 767.17 213.495V208.923C769.722 209.879 772.422 210.378 775.148 210.396C779.32 210.396 782.368 208.77 782.368 204.751C782.368 196.824 766.667 199.642 766.667 188.573C766.667 183.09 771.095 179.208 778.715 179.208C780.692 179.211 782.664 179.396 784.607 179.761L784.599 184.044Z" fill="#4C5356"/>
<path d="M157.74 112.769C126.705 112.769 110.357 93.8586 110.357 61.5207C110.348 25.8282 133.584 6.46631 160.95 6.46631C191.985 6.46631 208.35 25.3769 208.35 57.7147C208.341 93.3988 185.105 112.769 157.74 112.769ZM159.264 24.3466C143.086 24.3466 131.592 36.5478 131.592 59.1196C131.592 81.2572 140.762 94.9569 159.264 94.9569C175.441 94.9569 187.089 82.7557 187.089 60.0477C187.089 38.0379 177.919 24.3466 159.264 24.3466ZM66.7884 111.092H40.9471L6.24219 8.1692H28.252L48.1333 69.7542C50.1171 76.6168 52.5693 85.4633 54.2466 92.6325H54.5531C56.256 85.6081 58.5294 76.9233 60.8198 69.4477L80.8457 8.1692H101.331L66.7884 111.092ZM230.802 111.092V8.14365H250.675V93.8586H288.283V111.092H230.802ZM363.346 111.092L327.262 61.674V111.092H307.381V8.14365H327.262V54.8113L362.12 8.14365H385.663L347.595 57.2465L388.106 111.092H363.346ZM814.135 106.213C803.918 110.334 791.197 112.616 778.826 112.616C744.887 112.616 726.692 92.4792 726.692 61.8357C726.692 29.1999 746.718 6.61957 784.028 6.61957C792.802 6.66313 801.534 7.84224 810.006 10.1275V29.5064C801.338 26.0538 792.089 24.2936 782.76 24.3211C758.297 24.3211 748.208 40.4985 748.208 59.7071C748.208 81.3679 759.668 94.7781 781.082 94.7781C785.531 94.8336 789.963 94.2193 794.228 92.956V57.1017H814.11V106.205L814.135 106.213ZM693.528 111.092L686.495 89.133H647.661L640.475 111.092H620.449L655.043 8.1692H680.876L715.495 111.092H693.528ZM671.391 41.2734C669.688 35.9263 668.334 30.7495 667.261 25.8707H666.955C665.882 30.7495 664.502 36.0881 662.978 41.1201L652.284 73.475H682.085L671.391 41.2734ZM590.231 111.092H565.573L549.83 54.8113C548.336 48.638 547.199 42.3837 546.424 36.0795H546.118C545.362 42.3733 544.291 48.6251 542.908 54.8113L527.479 111.092H502.745L476.904 8.1692H498.19L511.941 64.4497C513.924 74.054 515.346 82.33 516.377 90.0696H516.683C517.839 81.5473 519.47 73.0962 521.57 64.7562L537.143 8.1692H557.025L573.074 65.3692C575.358 73.4838 577.146 81.7297 578.43 90.0611H578.736C579.809 82.1342 581.035 73.7474 582.713 65.6587L596.293 8.1692H615.876L590.231 111.092ZM456.273 25.8367C450.062 24.0219 443.636 23.0483 437.167 22.9418C425.851 22.9418 420.044 27.514 420.044 34.862C420.044 53.5938 464.839 47.0632 464.839 80.9166C464.839 99.3759 450.773 112.786 425.553 112.786C417.465 112.835 409.404 111.862 401.559 109.891V90.9722C409.499 93.88 417.873 95.4286 426.328 95.5529C436.417 95.5529 443.604 91.747 443.604 82.7387C443.604 62.9086 399.422 70.231 399.422 36.6841C399.422 18.8037 413.795 6.49185 438.41 6.49185C444.413 6.56333 450.397 7.17601 456.29 8.32246V25.8367H456.273ZM844.702 111.092V8.14365H906.926V24.7724H864.575V50.2391H903.545V66.093H864.575V94.0118H907.377V111.092H844.702ZM996.796 111.092L964.381 58.9323C959.806 51.8228 955.77 44.3801 952.308 36.667H952.001C952.759 47.0376 953.534 66.408 953.534 83.0282V111.126H934.274V8.1692H956.905L987.336 56.974C991.986 64.2003 996.12 71.7458 999.708 79.5543H1000.01C999.256 68.2727 998.49 50.1199 998.49 33.1846V8.1692H1017.76V111.092H996.796Z" fill="#4C5356"/>
</svg>
