<svg width="500" height="135" viewBox="0 0 500 135" fill="none" xmlns="http://www.w3.org/2000/svg">
<g clip-path="url(#clip0_71_239)">
<path d="M40.282 133.145H41.166C47.709 133.145 53.2 129.432 55.677 121.648L70.892 73.8762L85.934 121.648C88.407 129.432 93.897 133.145 100.44 133.145H101.324C107.872 133.145 113.357 129.432 116.187 121.112L140.08 53.3492C140.432 52.1132 140.963 49.6312 140.963 47.8632C140.963 41.1422 135.83 35.4722 128.399 35.4722C121.32 35.4722 117.249 40.0742 115.482 45.7432L100.619 94.2152L85.577 46.0962C83.631 39.7272 78.676 35.3032 71.776 35.3032H70.183C63.282 35.3032 58.328 39.7272 56.382 46.0962L41.519 94.0462L27.013 45.9172C25.067 39.7272 20.644 35.4722 13.917 35.4722C5.954 35.4722 1 41.4992 1 47.6852C1 49.9882 1.71 52.6442 2.236 54.2322L25.419 121.112C28.249 129.432 33.735 133.145 40.282 133.145Z" fill="black"/>
<path d="M159.392 119.16C159.392 126.591 165.408 132.603 172.84 132.603C180.272 132.603 186.288 126.591 186.288 119.16V49.094C186.288 41.667 180.272 35.645 172.84 35.645C165.408 35.645 159.392 41.667 159.392 49.094V119.16Z" fill="black"/>
<path d="M207.867 119.16C207.867 126.591 213.884 132.603 221.315 132.603C228.747 132.603 234.763 126.591 234.763 119.16V14.7701C234.763 7.33915 228.747 1.32715 221.315 1.32715C213.884 1.32715 207.867 7.33915 207.867 14.7701V119.16Z" fill="black"/>
<path d="M257.577 119.16C257.577 126.591 263.594 132.603 271.025 132.603C278.457 132.603 284.474 126.591 284.474 119.16V14.7701C284.474 7.33915 278.457 1.32715 271.025 1.32715C263.594 1.32715 257.577 7.33915 257.577 14.7701V119.16Z" fill="black"/>
<path d="M333.122 73.5112V119.158C333.122 126.594 327.11 132.606 319.673 132.606C312.247 132.606 306.225 126.594 306.225 119.158V14.7682C306.225 7.33719 312.247 1.3252 319.673 1.3252C327.11 1.3252 333.122 7.33719 333.122 14.7682V73.5112Z" fill="black"/>
<path d="M349.087 94.035L342.182 84.503C338.667 80.041 339.125 74.15 342.24 70.036L371.913 41.666C375.805 37.943 378.987 35.645 383.768 35.645C391.021 35.645 395.623 41.488 395.623 47.678C395.623 52.28 393.145 55.82 389.427 59.359L368.195 77.583L393.498 111.733C395.796 114.915 396.859 117.392 396.859 120.4C396.859 127.653 391.021 132.608 384.299 132.608C378.987 132.608 375.805 130.84 372.618 126.417L365.37 116.441L349.087 94.035Z" fill="black"/>
<path d="M159.002 14.627C159.002 7.099 165.1 1 172.628 1C180.152 1 186.255 7.099 186.255 14.627C186.255 22.155 180.152 28.254 172.628 28.254C165.1 28.254 159.002 22.155 159.002 14.627Z" fill="#E30613"/>
<path d="M499 80.5929C499 60.9489 485.021 34.9409 453.348 34.9409C425.747 34.9409 406.46 57.2359 406.46 84.6589C406.46 113.675 427.514 133.667 456.004 133.667C469.805 133.667 480.597 129.243 488.913 122.169C490.859 120.397 492.452 117.746 492.452 114.206C492.452 108.19 488.029 103.588 482.012 103.588C479.183 103.588 477.41 104.298 475.464 105.713C469.984 109.783 463.779 112.439 456.357 112.082C435.549 111.073 430.614 89.4589 432.821 76.6959C435.028 63.9379 442.203 56.5259 453.348 56.5259C464.672 56.5259 471.751 64.6629 473.344 76.6959H451.914V76.7399L451.871 76.7349C447.249 76.7349 443.502 80.4819 443.502 85.1029C443.502 89.7199 447.249 93.4709 451.871 93.4709L451.914 93.4619V93.5049H486.435C493.514 93.5049 499 88.3769 499 80.5929Z" fill="black"/>
</g>
<defs>
<clipPath id="clip0_71_239">
<rect width="500" height="135" fill="white"/>
</clipPath>
</defs>
</svg>
