<svg xmlns="http://www.w3.org/2000/svg" viewBox="0 0 320 160" width="100%" height="100%">
  <style>
    .stroke-main { stroke: #171717; }
    .stroke-secondary { stroke: #D4D4D4; }
    .fill-base { fill: #FFFFFF; stroke: #E5E5E5; }
    
    .thumb-up-bg { fill: #ECFDF5; stroke: #A7F3D0; }
    .thumb-up-fg { stroke: #10B981; }
    
    @media (prefers-color-scheme: dark) {
      .stroke-main { stroke: #F5F5F5; }
      .stroke-secondary { stroke: #404040; }
      .fill-base { fill: #0A0A0A; stroke: #262626; }
      
      .thumb-up-bg { fill: #064E3B; stroke: #047857; }
      .thumb-up-fg { stroke: #34D399; }
    }
  </style>

  <g>
    <!-- Agent Node -->
    <rect x="55" y="64" width="32" height="32" rx="8" class="fill-base" stroke-width="1.5" />
    <!-- Sparkles -->
    <g transform="translate(59, 68)" class="stroke-main" stroke-width="1.5" stroke-linecap="round" stroke-linejoin="round" fill="none">
       <path d="m12 3-1.912 5.813a2 2 0 0 1-1.275 1.275L3 12l5.813 1.912a2 2 0 0 1 1.275 1.275L12 21l1.912-5.813a2 2 0 0 1 1.275-1.275L21 12l-5.813-1.912a2 2 0 0 1-1.275-1.275L12 3Z"/>
    </g>
    
    <!-- Connection -->
    <path d="M 87 80 L 125 80" fill="none" class="stroke-secondary" stroke-width="1.5" stroke-dasharray="3 3" />

    <!-- Container -->
    <rect x="125" y="40" width="140" height="80" rx="16" class="fill-base" stroke-width="1.5" />
    
    <!-- Thumbs Up Button -->
    <rect x="135" y="50" width="55" height="60" rx="10" class="thumb-up-bg" stroke-width="1.5" />
    <g transform="translate(150.5, 68)" class="thumb-up-fg" stroke-width="1.5" stroke-linecap="round" stroke-linejoin="round" fill="none">
      <path d="M7 10v12"/>
      <path d="M15 5.88 14 10h5.83a2 2 0 0 1 1.92 2.56l-2.33 8A2 2 0 0 1 17.5 22H4a2 2 0 0 1-2-2v-8a2 2 0 0 1 2-2h2.76a2 2 0 0 0 1.79-1.11L12 2h0a3.13 3.13 0 0 1 3 3.88Z"/>
    </g>

    <!-- Thumbs Down Button -->
    <rect x="200" y="50" width="55" height="60" rx="10" class="fill-base" stroke-width="1.5" />
    <g transform="translate(215.5, 68)" class="stroke-secondary" stroke-width="1.5" stroke-linecap="round" stroke-linejoin="round" fill="none">
      <path d="M17 14V2"/>
      <path d="M9 18.12 10 14H4.17a2 2 0 0 1-1.92-2.56l2.33-8A2 2 0 0 1 6.5 2H20a2 2 0 0 1 2 2v8a2 2 0 0 1-2 2h-2.76a2 2 0 0 0-1.79 1.11L12 22h0a3.13 3.13 0 0 1-3-3.88Z"/>
    </g>
  </g>
</svg>