<svg xmlns="http://www.w3.org/2000/svg" viewBox="0 0 44 45" fill="none">
<style>
  path { fill: #0a0a0a; }
  @media (prefers-color-scheme: dark) {
    path { fill: #fafafa; }
  }
</style>
<path d="M25.3764 36.5107C24.3658 32.3823 22.857 26.529 22.857 22.5C22.857 18.4709 24.3658 12.6176 25.3764 8.48918C25.6738 7.27428 25.9825 6.01289 26.2994 4.6248C26.4175 4.10765 26.9872 3.83199 27.463 4.0662L30.8386 5.72784C31.2831 5.94668 31.4343 6.50989 31.2107 6.95222C30.4311 8.49455 29.7936 10.7234 29.2153 12.7453C28.7009 14.5434 28.2334 16.1778 27.7545 17.0199C26.9075 18.5093 26.7353 20.4319 26.6214 21.7043C26.5938 22.013 26.5695 22.2833 26.54 22.5C26.5695 22.7166 26.5938 22.987 26.6214 23.2956C26.7353 24.568 26.9075 26.4907 27.7545 27.98C28.2334 28.8221 28.7009 30.4565 29.2153 32.2546C29.7936 34.2765 30.4311 36.5054 31.2107 38.0477C31.4343 38.49 31.2831 39.0532 30.8386 39.2721L27.463 40.9337C26.9872 41.1679 26.4175 40.8923 26.2994 40.3751C25.9825 38.987 25.6738 37.7257 25.3764 36.5107Z"/>
<path d="M28.2485 22.5818C28.3184 24.2494 29.4414 25.9796 30.7805 27.4075C32.1479 28.8655 33.48 29.5347 35.1636 30.3804C35.9953 30.7982 36.9128 31.2591 37.9627 31.8795C38.283 32.0687 38.6992 31.963 38.8818 31.6388L40.779 28.2716C40.9489 27.97 40.855 27.5877 40.5532 27.4184C39.7633 26.9755 38.7688 26.5259 37.7525 26.0664C35.2851 24.9509 32.6891 23.7772 32.5819 22.5C32.6891 21.2227 35.2851 20.0491 37.7525 18.9335C38.7688 18.4741 39.7633 18.0244 40.5532 17.5815C40.855 17.4122 40.9489 17.0299 40.779 16.7283L38.8818 13.3611C38.6992 13.0369 38.283 12.9312 37.9627 13.1205C36.9128 13.7408 35.9953 14.2017 35.1636 14.6195C33.48 15.4652 32.1479 16.1344 30.7805 17.5924C29.4414 19.0203 28.3184 20.7505 28.2485 22.4182L28.2451 22.4182C28.2451 22.4454 28.2454 22.4727 28.246 22.5C28.2454 22.5272 28.2451 22.5545 28.2451 22.5818L28.2485 22.5818Z"/>
<path d="M21.3691 22.5C21.3691 26.529 19.8603 32.3823 18.8497 36.5107C18.5523 37.7257 18.2436 38.987 17.9267 40.3751C17.8086 40.8923 17.2389 41.1679 16.7631 40.9337L13.3875 39.2721C12.9429 39.0532 12.7918 38.49 13.0154 38.0477C13.795 36.5054 14.4325 34.2765 15.0108 32.2547C15.5251 30.4565 15.9926 28.8221 16.4715 27.98C17.3186 26.4907 17.4908 24.568 17.6047 23.2956L17.6047 23.2955C17.6323 22.9869 17.6565 22.7166 17.6861 22.5C17.6565 22.2833 17.6323 22.013 17.6047 21.7043C17.4908 20.4319 17.3186 18.5093 16.4716 17.0199C15.9926 16.1778 15.5251 14.5434 15.0108 12.7452C14.4325 10.7234 13.795 8.49455 13.0154 6.95222C12.7918 6.50989 12.9429 5.94668 13.3875 5.72784L16.7631 4.06619C17.2389 3.83199 17.8086 4.10764 17.9267 4.6248C18.2436 6.01289 18.5523 7.27423 18.8497 8.48912C19.8603 12.6176 21.3691 18.4709 21.3691 22.5Z"/>
<path d="M15.9775 22.5818C15.9077 24.2494 14.7847 25.9796 13.4456 27.4075C12.0782 28.8655 10.7461 29.5347 9.06251 30.3804C8.23081 30.7982 7.31332 31.2591 6.26339 31.8795C5.94312 32.0687 5.52691 31.963 5.34427 31.6388L3.44711 28.2716C3.27718 27.97 3.37104 27.5877 3.67292 27.4184C4.46274 26.9755 5.45724 26.5259 6.47354 26.0664C8.941 24.9509 11.537 23.7772 11.6442 22.5C11.537 21.2227 8.941 20.0491 6.47354 18.9335C5.45724 18.4741 4.46274 18.0244 3.67292 17.5815C3.37104 17.4122 3.27718 17.0299 3.44711 16.7283L5.34427 13.3611C5.52691 13.0369 5.94312 12.9312 6.26339 13.1205C7.31331 13.7408 8.23081 14.2017 9.06251 14.6195C10.7461 15.4653 12.0782 16.1344 13.4456 17.5924C14.7847 19.0203 15.9077 20.7505 15.9775 22.4182L15.981 22.4182C15.981 22.4454 15.9807 22.4727 15.9801 22.5C15.9807 22.5272 15.981 22.5545 15.981 22.5818L15.9775 22.5818Z"/>
</svg>
