<svg width="72" height="72" viewBox="0 0 72 72" fill="none" xmlns="http://www.w3.org/2000/svg">
<path d="M40.6022 58.4171C38.9853 51.8115 36.5712 42.4462 36.5712 35.9998C36.5712 29.5534 38.9853 20.1881 40.6022 13.5825C41.078 11.6387 41.572 9.62049 42.0791 7.39953C42.268 6.57209 43.1795 6.13105 43.9408 6.50577L49.3417 9.16441C50.053 9.51455 50.2948 10.4157 49.9371 11.1234C48.6898 13.5911 47.6698 17.1573 46.7445 20.3923C45.9215 23.2693 45.1735 25.8844 44.4073 27.2317C43.052 29.6147 42.7765 32.6909 42.5942 34.7268C42.55 35.2206 42.5113 35.6532 42.4639 35.9998C42.5113 36.3464 42.55 36.779 42.5942 37.2728C42.7765 39.3087 43.052 42.3849 44.4073 44.7679C45.1735 46.1152 45.9215 48.7302 46.7444 51.6072C47.6697 54.8422 48.6898 58.4085 49.9371 60.8762C50.2948 61.5839 50.053 62.485 49.3417 62.8352L43.9408 65.4938C43.1795 65.8685 42.268 65.4275 42.0791 64.6001C41.572 62.3791 41.078 60.3609 40.6022 58.4171Z" fill="currentColor"/>
<path d="M45.1977 36.1307C45.3094 38.7989 47.1062 41.5673 49.2488 43.8518C51.4367 46.1847 53.568 47.2553 56.2617 48.6085C57.5924 49.277 59.0604 50.0144 60.7403 51.007C61.2527 51.3098 61.9187 51.1407 62.2109 50.622L65.2464 45.2344C65.5182 44.7519 65.3681 44.1402 64.8851 43.8693C63.6213 43.1606 62.0301 42.4412 60.4041 41.7061C56.4561 39.9213 52.3026 38.0434 52.131 35.9998C52.3026 33.9562 56.4561 32.0783 60.4041 30.2935C62.0302 29.5583 63.6213 28.839 64.8851 28.1303C65.3681 27.8594 65.5182 27.2477 65.2464 26.7652L62.2109 21.3776C61.9187 20.8589 61.2527 20.6898 60.7403 20.9926C59.0604 21.9852 57.5925 22.7226 56.2617 23.3911C53.568 24.7443 51.4367 25.8149 49.2488 28.1478C47.1062 30.4323 45.3094 33.2007 45.1977 35.8689L45.1922 35.8689C45.1922 35.9125 45.1926 35.9561 45.1935 35.9998C45.1926 36.0434 45.1922 36.0871 45.1922 36.1307L45.1977 36.1307Z" fill="currentColor"/>
<path d="M34.1905 35.9998C34.1905 42.4462 31.7765 51.8115 30.1595 58.4171C29.6837 60.3609 29.1897 62.3791 28.6827 64.6001C28.4938 65.4275 27.5822 65.8685 26.821 65.4938L21.42 62.8352C20.7087 62.485 20.4669 61.5839 20.8246 60.8762C22.0719 58.4085 23.092 54.8423 24.0173 51.6074C24.8402 48.7303 25.5882 46.1152 26.3545 44.7679C27.7098 42.3849 27.9852 39.3086 28.1675 37.2728L28.1675 37.2726C28.2117 36.7789 28.2505 36.3464 28.2978 35.9998C28.2505 35.6532 28.2117 35.2206 28.1675 34.7268C27.9852 32.6909 27.7098 29.6147 26.3545 27.2317C25.5882 25.8844 24.8402 23.2693 24.0173 20.3923C23.092 17.1573 22.0719 13.5911 20.8246 11.1234C20.4669 10.4157 20.7087 9.51455 21.42 9.16441L26.821 6.50577C27.5822 6.13104 28.4938 6.57209 28.6827 7.39953C29.1897 9.62049 29.6837 11.6386 30.1595 13.5825C31.7764 20.188 34.1905 29.5534 34.1905 35.9998Z" fill="currentColor"/>
<path d="M25.5641 36.1307C25.4523 38.7989 23.6556 41.5673 21.5129 43.8518C19.3251 46.1847 17.1938 47.2553 14.5 48.6085C13.1693 49.277 11.7013 50.0144 10.0214 51.007C9.50899 51.3098 8.84306 51.1407 8.55083 50.622L5.51537 45.2344C5.24349 44.7519 5.39367 44.1402 5.87668 43.8693C7.14039 43.1606 8.73158 42.4412 10.3577 41.7061C14.3056 39.9213 18.4592 38.0434 18.6308 35.9998C18.4592 33.9562 14.3056 32.0783 10.3577 30.2935C8.73158 29.5583 7.14038 28.839 5.87668 28.1303C5.39367 27.8594 5.24349 27.2477 5.51537 26.7651L8.55084 21.3776C8.84306 20.8589 9.50899 20.6898 10.0214 20.9926C11.7013 21.9852 13.1693 22.7226 14.5 23.3911C17.1938 24.7443 19.3251 25.8149 21.5129 28.1478C23.6556 30.4323 25.4523 33.2007 25.5641 35.8689L25.5696 35.8689C25.5696 35.9125 25.5691 35.9561 25.5682 35.9998C25.5691 36.0434 25.5696 36.0871 25.5696 36.1307L25.5641 36.1307Z" fill="currentColor"/>
</svg>
