<svg xmlns="http://www.w3.org/2000/svg" width="140" height="48" viewBox="0 0 140 48" role="img" aria-labelledby="title desc">
  <title id="title">AES Monochrome Badge</title>
  <desc id="desc">Black and white AES 256 badge.</desc>
  <rect x="1" y="1" width="138" height="46" rx="8" fill="#fff" stroke="#111" stroke-width="2"/>
  <g fill="#111">
    <path d="M19 37 27.5 11h6L42 37h-4.8l-2-6.5h-9.5L23.8 37H19Zm7.7-10.6h7.1l-3.5-11.1-3.6 11.1Z"/>
    <path d="M46 37V11h19v4H50.5v6.7h13.1v4H50.5V33H65v4H46Z"/>
    <path d="M69 29.2h4.7c.1 2.7 2.1 4.2 5.5 4.2 3 0 4.9-1.2 4.9-3.1 0-1.7-1.2-2.7-4-3.3l-4.5-.9c-4.5-.9-6.6-3.2-6.6-7 0-5 4-8.3 10-8.3 5.9 0 9.8 3.4 9.9 8.4h-4.6c-.2-2.7-2.1-4.2-5.2-4.2-2.9 0-4.8 1.3-4.8 3.2 0 1.6 1.2 2.6 3.8 3.1l4.4.9c4.9 1 7 3.2 7 7.1 0 5.2-4 8.4-10.5 8.4-6.3 0-10.1-3.1-10.1-8.5Z"/>
  </g>
  <text x="103" y="36" fill="#111" font-family="Arial, Helvetica, sans-serif" font-size="14" font-weight="700">256</text>
</svg>
