<svg xmlns="http://www.w3.org/2000/svg" width="220" height="64" viewBox="0 0 220 64" role="img" aria-labelledby="title desc">
  <title id="title">Microsoft Azure Logo Monochrome</title>
  <desc id="desc">Monochrome Azure logo with icon and wordmark.</desc>
  <rect width="220" height="64" fill="#fff"/>
  <g fill="#111">
    <path d="M24 50 35.6 14h9.7L57 50h-8.8l-2.3-8H35.2l-2.3 8H24Zm13.1-15h6.9l-3.4-12.3L37.1 35Z"/>
    <path d="M66 50V14h26v7.1H74.6v7.5h15.5v7H74.6V43H92v7H66Z"/>
    <path d="M102 50V14h8.7v14.2L122.7 14h10.5l-12.7 14.4L134 50h-10.4l-9.1-14.4-3.8 4.2V50H102Z"/>
    <path d="M158 14h-8.9L137 50h8.8l2.3-8h10.7l2.3 8h8.9L158 14Zm-8 21 3.4-12.3L156.8 35H150Z"/>
    <path d="M184 50V21.1h-10V14h28.8v7.1h-10V50H184Z"/>
  </g>
  <path d="M7 50 20.5 14 34 50H7Z" fill="#111"/>
</svg>
