<svg xmlns="http://www.w3.org/2000/svg" width="210" height="64" viewBox="0 0 210 64" role="img" aria-labelledby="title desc">
  <title id="title">ZITADEL Monochrome Wordmark</title>
  <desc id="desc">Black and white ZITADEL wordmark badge.</desc>
  <rect x="1" y="1" width="208" height="62" rx="10" fill="#fff" stroke="#111" stroke-width="2"/>
  <g fill="#111">
    <path d="M18 18h30v6L27.6 46H48v6H18v-6l20.4-22H18v-6Z"/>
    <path d="M56 24h8v28h-8V24Zm0-10h8v6h-8v-6Z"/>
    <path d="M70 24h27v6h-9.5v22h-8V30H70v-6Z"/>
    <path d="M102 24h8v28h-8V24Zm0-10h8v6h-8v-6Z"/>
    <path d="M116 24h28v6h-19v5h17v6h-17v5h19v6h-28V24Z"/>
    <path d="M150 24h8v22h14v6h-22V24Z"/>
    <path d="M176 24h14c9.2 0 14.9 5.3 14.9 14 0 8.8-5.7 14-14.9 14H176V24Zm8 6v16h5.5c4.8 0 7.2-2.9 7.2-8 0-5.1-2.5-8-7.2-8H184Z"/>
  </g>
</svg>
