<svg width="48" height="48" viewBox="0 0 48 48" fill="none" xmlns="http://www.w3.org/2000/svg">
<g clip-path="url(#clip0_6927_3274)">
<path d="M28.4999 20.8548C28.4999 20.1065 29.1065 19.5 29.8548 19.5H46.645C47.3933 19.5 47.9999 20.1065 47.9999 20.8548V30.7499C47.9999 36.1347 43.6347 40.4999 38.2499 40.4999C32.8651 40.4999 28.4999 36.1347 28.4999 30.7499V20.8548Z" fill="url(#paint0_linear_6927_3274)"/>
<path d="M13.5 18.3387C13.5 17.3232 14.3232 16.5 15.3387 16.5H35.6612C36.6767 16.5 37.4999 17.3232 37.4999 18.3387V32.9999C37.4999 39.6273 32.1273 44.9999 25.4999 44.9999C18.8725 44.9999 13.5 39.6273 13.5 32.9999V18.3387Z" fill="url(#paint1_linear_6927_3274)"/>
<circle cx="40.4999" cy="12" r="4.49999" fill="#34439E"/>
<circle cx="40.4999" cy="12" r="4.49999" fill="url(#paint2_linear_6927_3274)"/>
<circle cx="26.9999" cy="8.99998" r="5.99999" fill="url(#paint3_linear_6927_3274)"/>
<mask id="mask0_6927_3274" style="mask-type:alpha" maskUnits="userSpaceOnUse" x="13" y="0" width="25" height="45">
<path d="M25.4999 15C29.6421 15 32.9999 11.6422 32.9999 7.49998C32.9999 3.35778 29.6421 0 25.4999 0C21.3577 0 18 3.35778 18 7.49998C18 11.6422 21.3577 15 25.4999 15Z" fill="url(#paint4_linear_6927_3274)"/>
<path d="M15.3387 16.5C14.3232 16.5 13.5 17.3232 13.5 18.3387V32.9999C13.5 39.6274 18.8725 44.9999 25.4999 44.9999C32.1274 44.9999 37.4999 39.6274 37.4999 32.9999V18.3387C37.4999 17.3232 36.6767 16.5 35.6612 16.5H15.3387Z" fill="url(#paint5_linear_6927_3274)"/>
</mask>
<g mask="url(#mask0_6927_3274)">
<path d="M10.5 18C10.5 15.5147 12.5147 13.5 15 13.5H25.4999C27.9852 13.5 29.9999 15.5147 29.9999 18V35.9999C29.9999 38.4852 27.9852 40.4999 25.4999 40.4999H10.5V18Z" fill="black" fill-opacity="0.3"/>
</g>
<rect y="10.5" width="26.9999" height="26.9999" rx="2.99999" fill="url(#paint6_linear_6927_3274)"/>
<path d="M19.5 16.5H7.49998V19.252H11.9924V31.4999H15.0076V19.252H19.5V16.5Z" fill="white"/>
</g>
<defs>
<linearGradient id="paint0_linear_6927_3274" x1="28.4999" y1="20.6052" x2="48.2385" y2="33.5032" gradientUnits="userSpaceOnUse">
<stop stop-color="#364088"/>
<stop offset="1" stop-color="#6E7EE1"/>
</linearGradient>
<linearGradient id="paint1_linear_6927_3274" x1="13.5" y1="29.1057" x2="37.4999" y2="29.1057" gradientUnits="userSpaceOnUse">
<stop stop-color="#515FC4"/>
<stop offset="1" stop-color="#7084EA"/>
</linearGradient>
<linearGradient id="paint2_linear_6927_3274" x1="35.9999" y1="7.97367" x2="44.6944" y2="14.092" gradientUnits="userSpaceOnUse">
<stop stop-color="#364088"/>
<stop offset="1" stop-color="#6E7EE1"/>
</linearGradient>
<linearGradient id="paint3_linear_6927_3274" x1="22.7142" y1="4.71428" x2="30.4285" y2="13.7143" gradientUnits="userSpaceOnUse">
<stop stop-color="#4858AE"/>
<stop offset="1" stop-color="#4E60CE"/>
</linearGradient>
<linearGradient id="paint4_linear_6927_3274" x1="20.1428" y1="2.14285" x2="29.7856" y2="13.3928" gradientUnits="userSpaceOnUse">
<stop stop-color="#4858AE"/>
<stop offset="1" stop-color="#4E60CE"/>
</linearGradient>
<linearGradient id="paint5_linear_6927_3274" x1="20.1428" y1="2.14285" x2="29.7856" y2="13.3928" gradientUnits="userSpaceOnUse">
<stop stop-color="#4858AE"/>
<stop offset="1" stop-color="#4E60CE"/>
</linearGradient>
<linearGradient id="paint6_linear_6927_3274" x1="-7.82307e-08" y1="23.9999" x2="26.9999" y2="23.9999" gradientUnits="userSpaceOnUse">
<stop stop-color="#2A3887"/>
<stop offset="1" stop-color="#4C56B9"/>
</linearGradient>
<clipPath id="clip0_6927_3274">
<rect width="47.9999" height="47.9999" fill="white"/>
</clipPath>
</defs>
</svg>
